<svg width="24" height="25" viewBox="0 0 24 25" fill="none" xmlns="http://www.w3.org/2000/svg">
<path d="M7 8C9.76142 8 12 6.88071 12 5.5C12 4.11929 9.76142 3 7 3C4.23858 3 2 4.11929 2 5.5C2 6.88071 4.23858 8 7 8Z" stroke="white" stroke-width="2" stroke-linecap="round" stroke-linejoin="round"/>
<path d="M2 5.5V9C2 10.3805 4.2385 11.5 7 11.5C9.7615 11.5 12 10.3805 12 9V5.5" stroke="white" stroke-width="2" stroke-linecap="round" stroke-linejoin="round"/>
<path d="M2 9V12.5C2 13.8805 4.2385 15 7 15C9.7615 15 12 13.8805 12 12.5V9" stroke="white" stroke-width="2" stroke-linecap="round" stroke-linejoin="round"/>
<path d="M2 12.5V16C2 17.3805 4.2385 18.5 7 18.5C9.7615 18.5 12 17.3805 12 16V12.5" stroke="white" stroke-width="2" stroke-linecap="round" stroke-linejoin="round"/>
<path d="M2 16V19.5C2 20.8805 4.2385 22 7 22C9.7615 22 12 20.8805 12 19.5V16" stroke="white" stroke-width="2" stroke-linecap="round" stroke-linejoin="round"/>
<path d="M17 15C19.7614 15 22 13.8807 22 12.5C22 11.1193 19.7614 10 17 10C14.2386 10 12 11.1193 12 12.5C12 13.8807 14.2386 15 17 15Z" stroke="white" stroke-width="2" stroke-linecap="round" stroke-linejoin="round"/>
<path d="M12 12.5V16C12 17.3805 14.2385 18.5 17 18.5C19.7615 18.5 22 17.3805 22 16V12.5" stroke="white" stroke-width="2" stroke-linecap="round" stroke-linejoin="round"/>
<path d="M12 16V19.5C12 20.8805 14.2385 22 17 22C19.7615 22 22 20.8805 22 19.5V16" stroke="white" stroke-width="2" stroke-linecap="round" stroke-linejoin="round"/>
</svg>
