<svg width="25" height="24" viewBox="0 0 25 24" fill="none" xmlns="http://www.w3.org/2000/svg">
<path d="M4.33289 4H8.82289L10.2699 7.618L7.94489 9.168C7.80797 9.25935 7.69572 9.38308 7.61809 9.52822C7.54047 9.67335 7.49987 9.83541 7.49989 10C7.50289 10.094 7.49989 10.001 7.49989 10.001V10.022C7.50039 10.0667 7.50239 10.1114 7.50589 10.156C7.51122 10.2387 7.52289 10.3487 7.54089 10.486C7.57989 10.756 7.65489 11.128 7.80089 11.566C8.09489 12.446 8.67089 13.585 9.79289 14.707C10.9149 15.829 12.0539 16.405 12.9329 16.699C13.3719 16.845 13.7429 16.919 14.0149 16.959C14.1683 16.9813 14.3229 16.9947 14.4779 16.999L14.4909 17H14.4989C14.4989 17 14.6109 16.994 14.4999 17C14.6856 16.9999 14.8675 16.9481 15.0254 16.8504C15.1833 16.7528 15.3109 16.6131 15.3939 16.447L16.0639 15.107L20.4999 15.847V20.167C18.3889 20.472 12.6869 20.773 8.20689 16.293C3.72689 11.813 4.02689 6.11 4.33289 4ZM9.57289 10.486L11.3799 9.282C11.7616 9.02737 12.0442 8.64922 12.1802 8.21096C12.3162 7.77271 12.2974 7.30102 12.1269 6.875L10.6799 3.257C10.5314 2.88591 10.2751 2.56781 9.94413 2.34376C9.61313 2.11971 9.22259 1.99997 8.82289 2H4.28089C3.37189 2 2.51689 2.631 2.36789 3.617C2.02789 5.859 1.56689 12.481 6.79289 17.707C12.0189 22.933 18.6409 22.471 20.8829 22.132C21.8689 21.982 22.4999 21.128 22.4999 20.219V15.847C22.4999 15.3736 22.3321 14.9155 22.0261 14.5542C21.7201 14.1929 21.2959 13.9519 20.8289 13.874L16.3929 13.135C15.971 13.0646 15.5376 13.1313 15.1564 13.3253C14.7752 13.5193 14.4662 13.8304 14.2749 14.213L13.9289 14.906C13.8066 14.8756 13.6855 14.8406 13.5659 14.801C12.9459 14.595 12.0849 14.171 11.2069 13.293C10.3289 12.415 9.90489 11.554 9.69889 10.933C9.65033 10.786 9.60861 10.6369 9.57389 10.486H9.57289Z" fill="white"/>
</svg>
