<svg width="29" height="29" viewBox="0 0 29 29" fill="none" xmlns="http://www.w3.org/2000/svg">
<path fill-rule="evenodd" clip-rule="evenodd" d="M14.5 25.375C15.9281 25.375 17.3423 25.0937 18.6617 24.5472C19.9811 24.0007 21.1799 23.1996 22.1898 22.1898C23.1996 21.1799 24.0007 19.9811 24.5472 18.6617C25.0937 17.3423 25.375 15.9281 25.375 14.5C25.375 13.0719 25.0937 11.6577 24.5472 10.3383C24.0007 9.0189 23.1996 7.82005 22.1898 6.81021C21.1799 5.80038 19.9811 4.99933 18.6617 4.45281C17.3423 3.90629 15.9281 3.625 14.5 3.625C11.6158 3.625 8.84967 4.77076 6.81021 6.81021C4.77076 8.84967 3.625 11.6158 3.625 14.5C3.625 17.3842 4.77076 20.1503 6.81021 22.1898C8.84967 24.2292 11.6158 25.375 14.5 25.375ZM14.2197 18.8983L20.2613 11.6483L18.4053 10.1017L13.2095 16.3355L10.521 13.6457L8.81238 15.3543L12.4374 18.9793L13.3726 19.9145L14.2197 18.8983Z" fill="#F95269"/>
</svg>
