<svg width="28" height="29" viewBox="0 0 28 29" fill="none" xmlns="http://www.w3.org/2000/svg">
<path d="M3.5 14.5C3.5 15.8789 3.77159 17.2443 4.29926 18.5182C4.82694 19.7921 5.60036 20.9496 6.57538 21.9246C7.55039 22.8996 8.70791 23.6731 9.98182 24.2007C11.2557 24.7284 12.6211 25 14 25C15.3789 25 16.7443 24.7284 18.0182 24.2007C19.2921 23.6731 20.4496 22.8996 21.4246 21.9246C22.3996 20.9496 23.1731 19.7921 23.7007 18.5182C24.2284 17.2443 24.5 15.8789 24.5 14.5C24.5 11.7152 23.3938 9.04451 21.4246 7.07538C19.4555 5.10625 16.7848 4 14 4C11.2152 4 8.54451 5.10625 6.57538 7.07538C4.60625 9.04451 3.5 11.7152 3.5 14.5Z" stroke="#252650" stroke-width="3" stroke-linecap="round" stroke-linejoin="round"/>
<path d="M14 8.66675V14.5001L17.5 18.0001" stroke="#252650" stroke-width="3" stroke-linecap="round" stroke-linejoin="round"/>
</svg>
