<svg width="24" height="25" viewBox="0 0 24 25" fill="none" xmlns="http://www.w3.org/2000/svg">
<path fill-rule="evenodd" clip-rule="evenodd" d="M8.49413 15.7647C8.32478 15.7747 8.23008 15.7992 8.19442 15.8148C7.84124 15.9764 6.68198 16.397 5.8993 16.6772V20.6324C6.30039 20.614 6.75161 20.5984 7.00508 20.6084C8.13148 20.6535 8.98212 20.9159 9.77706 21.1683L9.84725 21.1906C10.6149 21.4346 11.3313 21.6624 12.2733 21.7337C12.5624 21.756 12.8148 21.7811 13.051 21.805C13.3316 21.8361 13.613 21.86 13.8949 21.8769C14.374 21.9014 14.7417 21.8752 15.0391 21.766C15.4068 21.6312 16.7326 21.0112 18.064 20.3355C18.6787 20.026 19.2864 19.703 19.8868 19.3667C20.1067 19.2436 20.3231 19.1143 20.5358 18.979C20.7179 18.8603 20.8059 18.7896 20.8299 18.7651C20.929 18.6631 20.9998 18.3818 20.87 18.1283C20.7797 17.9518 20.528 17.6933 19.8205 17.8103C19.0016 17.9456 18.0278 18.345 17.0713 18.7372C16.6073 18.9277 16.1455 19.1166 15.7372 19.2531C15.345 19.384 14.9238 19.4948 14.5628 19.4731C14.0392 19.4414 13.1167 19.3032 12.3513 19.1784C11.9121 19.1068 11.4735 19.0318 11.0355 18.9534L10.9502 18.9383L10.9207 18.9328L11.0271 17.8275L14.013 17.8637L14.0253 17.8626C14.0453 17.8609 14.0854 17.8559 14.1434 17.8409C14.257 17.8114 14.4442 17.7423 14.6759 17.5763C14.7562 17.5189 14.8542 17.4192 14.9428 17.29C15.0152 17.1841 15.0692 17.0777 15.101 16.9875C14.6944 16.9714 14.2902 16.9183 13.8933 16.8287C13.7018 16.7867 13.5119 16.7381 13.3239 16.6827L13.2983 16.6749L9.64058 15.8544H9.63946C9.58133 15.8441 9.52301 15.8348 9.46454 15.8265C9.31323 15.8045 9.16126 15.7872 9.00886 15.7747C8.83751 15.76 8.66537 15.7567 8.49357 15.7647M9.75088 15.3079L9.85282 14.7609L9.86285 14.7625L13.5885 15.5981L13.6114 15.6059L13.6181 15.6082L13.6437 15.616L13.7484 15.646C13.8403 15.6717 13.9729 15.7056 14.1306 15.7402C14.4503 15.8104 14.8536 15.875 15.2302 15.875C15.5778 15.875 15.9371 16.0048 16.1293 16.3569C16.2942 16.6588 16.2558 16.9908 16.1939 17.2203C16.1171 17.5067 15.9578 17.8075 15.7555 18.0632C16.0546 17.9483 16.3521 17.8295 16.648 17.7066L16.7165 17.6788C17.6206 17.3072 18.6924 16.8671 19.6378 16.7112C20.7185 16.5323 21.5045 16.9245 21.861 17.6203C22.1786 18.2398 22.105 19.0525 21.6271 19.5422C21.5073 19.6653 21.3246 19.7945 21.1413 19.9132C20.9103 20.061 20.6751 20.2022 20.436 20.3366C19.8206 20.6812 19.1977 21.0122 18.5676 21.3293C17.2468 21.9994 15.8619 22.6512 15.4219 22.8122C14.9116 22.9988 14.3634 23.0166 13.837 22.9893C13.5193 22.9696 13.202 22.9426 12.8855 22.9086C12.6536 22.8846 12.4215 22.8632 12.1892 22.8445C11.1151 22.7632 10.2907 22.5008 9.53195 22.2596L9.43948 22.23C8.65568 21.981 7.92647 21.7604 6.95996 21.7214C6.63129 21.7086 5.81406 21.751 5.37398 21.7766L4.78516 21.8111V15.8912L5.15561 15.7597C5.91044 15.4912 7.37386 14.9647 7.73206 14.8015C7.956 14.6996 8.21504 14.665 8.42951 14.6522C8.65142 14.6414 8.87381 14.6453 9.09521 14.6639C9.34297 14.6833 9.58966 14.7146 9.83444 14.7575L9.84781 14.7597L9.85115 14.7603H9.85338L9.75088 15.3079Z" fill="white"/>
<path fill-rule="evenodd" clip-rule="evenodd" d="M2 15.7603C2 15.4648 2.11738 15.1814 2.32632 14.9725C2.53527 14.7636 2.81865 14.6462 3.11414 14.6462H4.78535C5.08084 14.6462 5.36422 14.7636 5.57317 14.9725C5.78211 15.1814 5.89949 15.4648 5.89949 15.7603V21.8859C5.89949 22.1813 5.78211 22.4647 5.57317 22.6737C5.36422 22.8826 5.08084 23 4.78535 23H3.11414C2.81865 23 2.53527 22.8826 2.32632 22.6737C2.11738 22.4647 2 22.1813 2 21.8859V15.7603ZM3.11414 15.7603V21.8859H4.78535V15.7609L3.11414 15.7603ZM9.40847 10.2336L9.41961 10.2225C9.48669 10.155 9.52423 10.0637 9.52397 9.96859C9.5237 9.87347 9.48567 9.78235 9.41822 9.71528C9.35078 9.6482 9.25945 9.61066 9.16433 9.61093C9.06921 9.61119 8.97809 9.64922 8.91101 9.71667L7.81915 10.8158C7.71551 10.92 7.59225 11.0028 7.45648 11.0592C7.32072 11.1156 7.17513 11.1446 7.02811 11.1444H5.58809C5.49309 11.1444 5.40198 11.1822 5.3348 11.2494C5.26763 11.3165 5.22989 11.4076 5.22989 11.5026C5.22989 11.5976 5.26763 11.6887 5.3348 11.7559C5.40198 11.8231 5.49309 11.8608 5.58809 11.8608H7.1256C7.34984 11.8608 7.57179 11.8157 7.77822 11.7281C7.98465 11.6406 8.17135 11.5123 8.3272 11.3511L9.40847 10.2336ZM7.02867 10.0297H5.58753C5.19697 10.0297 4.8224 10.1849 4.54624 10.4611C4.27007 10.7372 4.11492 11.1118 4.11492 11.5024C4.11492 11.8929 4.27007 12.2675 4.54624 12.5437C4.8224 12.8198 5.19697 12.975 5.58753 12.975H7.12504C7.49874 12.975 7.86862 12.8999 8.21268 12.7541C8.55673 12.6082 8.86792 12.3946 9.12771 12.126L10.2084 11.008C10.4838 10.7311 10.6379 10.3562 10.6369 9.96564C10.6359 9.57513 10.4797 9.20103 10.2029 8.92563C9.92598 8.65024 9.55105 8.49611 9.16054 8.49715C8.77003 8.4982 8.39592 8.65433 8.12053 8.9312L7.02867 10.0297ZM16.8961 6.84609C17.0822 6.85135 17.2675 6.81924 17.441 6.75165C17.6145 6.68406 17.7727 6.58236 17.9062 6.45257C18.0397 6.32278 18.1458 6.16753 18.2183 5.99601C18.2908 5.82449 18.3281 5.64017 18.3281 5.45397C18.3281 5.26777 18.2908 5.08345 18.2183 4.91193C18.1458 4.74041 18.0397 4.58516 17.9062 4.45537C17.7727 4.32558 17.6145 4.22388 17.441 4.15629C17.2675 4.0887 17.0822 4.05659 16.8961 4.06185C16.5337 4.0721 16.1895 4.22327 15.9368 4.48322C15.6841 4.74318 15.5428 5.09143 15.5428 5.45397C15.5428 5.81651 15.6841 6.16476 15.9368 6.42471C16.1895 6.68467 16.5337 6.83583 16.8961 6.84609ZM19.4029 5.45397C19.4099 5.78754 19.3503 6.11916 19.2275 6.42939C19.1047 6.73962 18.9212 7.02222 18.6878 7.26062C18.4544 7.49901 18.1757 7.68842 17.8681 7.81772C17.5605 7.94702 17.2303 8.01363 16.8966 8.01363C16.563 8.01363 16.2327 7.94702 15.9251 7.81772C15.6175 7.68842 15.3389 7.49901 15.1054 7.26062C14.872 7.02222 14.6885 6.73962 14.5657 6.42939C14.4429 6.11916 14.3833 5.78754 14.3904 5.45397C14.4042 4.79842 14.6743 4.17438 15.1428 3.71564C15.6113 3.25691 16.2409 3 16.8966 3C17.5523 3 18.1819 3.25691 18.6504 3.71564C19.1189 4.17438 19.389 4.79842 19.4029 5.45397ZM15.2126 12.5817L15.2533 12.6218C15.4987 12.8521 15.8248 12.9765 16.1613 12.9683L16.183 12.97C16.1897 12.9714 16.1969 12.9722 16.2047 12.9722L17.9523 12.97C18.3463 12.9696 18.724 12.8127 19.0024 12.5338C19.2808 12.2549 19.4369 11.8769 19.4366 11.4829C19.4362 11.0888 19.2793 10.7111 19.0004 10.4327C18.7215 10.1544 18.3435 9.99818 17.9495 9.99855H16.8598C16.7484 9.99855 15.9407 9.1479 15.339 8.49613C15.1274 8.26585 14.8704 8.08185 14.5843 7.95569C14.2981 7.82952 13.9889 7.76393 13.6762 7.76302H10.9711L11.2318 12.9716H12.9492C13.2968 12.9706 13.6407 12.9003 13.9608 12.765C14.2806 12.6285 14.7708 12.2196 14.8109 12.1795C14.8488 12.1416 15.1753 12.5366 15.2098 12.5783L15.2126 12.5817ZM13.5236 11.7405L13.5497 11.7266C13.5694 11.7154 13.5947 11.7002 13.6255 11.6809C13.6879 11.6419 13.7575 11.5929 13.8266 11.5416C13.9033 11.4846 13.9783 11.4253 14.0517 11.3639C14.4305 11.0091 14.8789 11.0503 15.0544 11.0876C15.2371 11.1266 15.3669 11.2024 15.4142 11.2308C15.4944 11.2798 15.5696 11.3365 15.6387 11.4001C15.7212 11.4742 15.8003 11.56 15.8532 11.6185C15.9123 11.6837 15.9674 11.7477 16.0064 11.794L16.0287 11.8207C16.0403 11.8298 16.053 11.8373 16.0666 11.843M13.5236 11.7405C13.3414 11.8179 13.1459 11.8569 12.9481 11.858H12.2913L12.1426 8.87716H13.6762C13.9904 8.87716 14.2973 9.01086 14.5201 9.25207C14.8238 9.58074 15.1864 9.96735 15.4917 10.2754C15.6421 10.4275 15.7914 10.5734 15.9184 10.6871C15.9797 10.7411 16.0549 10.8063 16.1345 10.8637C16.173 10.8915 16.2354 10.9344 16.3139 10.9756L16.3173 10.9773C16.3629 11.0018 16.5735 11.1127 16.8598 11.1127H17.9495C18.048 11.1125 18.1426 11.1515 18.2124 11.2211C18.2822 11.2907 18.3214 11.3851 18.3216 11.4837C18.3217 11.5822 18.2827 11.6768 18.2132 11.7466C18.1436 11.8164 18.0491 11.8557 17.9506 11.8558L16.2571 11.8575C16.2252 11.855 16.1932 11.8539 16.1613 11.8541H16.1323C16.1099 11.8549 16.0875 11.8511 16.0666 11.843" fill="white"/>
</svg>
