<svg width="33" height="32" viewBox="0 0 33 32" fill="none" xmlns="http://www.w3.org/2000/svg">
<rect x="0.666504" width="32" height="32" rx="4" fill="#2AA631" fill-opacity="0.1"/>
<path d="M11.7998 27H22.5332C24.6255 27 25.6665 25.9225 25.6665 23.7882V14.4712C25.6665 13.1472 25.5251 12.5728 24.7165 11.7313L19.1372 5.97501C18.3696 5.17425 17.7426 5 16.6007 5H11.7998C9.71785 5 8.6665 6.08752 8.6665 8.22229V23.7882C8.6665 25.9326 9.71785 27 11.7998 27ZM11.8805 25.3481C10.8395 25.3481 10.2935 24.7834 10.2935 23.7576V8.25294C10.2935 7.23721 10.8395 6.65186 11.8908 6.65186H16.3782V12.614C16.3782 13.9068 17.0251 14.543 18.2782 14.543H24.0395V23.7576C24.0395 24.7834 23.5034 25.3481 22.4525 25.3481H11.8805ZM18.4602 12.9931C18.0661 12.9931 17.9039 12.8294 17.9039 12.4187V6.97015L23.7255 12.9936L18.4602 12.9931Z" fill="#2AA631"/>
</svg>
