<svg width="56" height="56" viewBox="0 0 56 56" fill="none" xmlns="http://www.w3.org/2000/svg">
<g clip-path="url(#clip0_121_2510)">
<path d="M55.6538 35.3511V35.5261C54.2535 40.777 49.0028 43.7523 43.7519 42.3522L41.8266 41.8271L42.3518 43.7523C43.752 49.0032 40.6015 54.254 35.5257 55.6542H35.3507C30.0998 57.0545 24.849 53.904 23.4488 48.8281L22.9237 46.9028L21.5234 48.3031C17.6728 52.1537 11.5468 52.1537 7.87128 48.3031L7.69628 48.1281C3.84566 44.2775 3.84566 38.1515 7.69628 34.3008L9.09653 32.9006L7.17128 32.3755C1.92041 30.9752 -1.05497 25.7245 0.34516 20.4736V20.2986C1.74541 15.2229 6.99616 12.2474 12.247 13.6476L13.9973 14.1727L13.6473 12.2475C12.247 6.9966 15.3975 1.74585 20.4734 0.345606H20.6484C25.8993 -1.05464 31.15 2.09586 32.5503 7.17173L33.0754 9.09698L34.4757 7.69673C38.3263 3.84611 44.4523 3.84611 48.3029 7.69673L48.4779 7.87173C52.3285 11.7224 52.3285 17.8484 48.4779 21.5239L47.0776 22.9241L49.0029 23.4492C54.0785 24.8494 57.054 30.1002 55.6538 35.3511Z" fill="#2C97A9"/>
<path d="M27.9997 38.5015C33.7996 38.5015 38.5013 33.7998 38.5013 27.9999C38.5013 22.2 33.7996 17.4983 27.9997 17.4983C22.1998 17.4983 17.498 22.2 17.498 27.9999C17.498 33.7998 22.1998 38.5015 27.9997 38.5015Z" fill="white"/>
<path d="M27.9994 35.176C31.9626 35.176 35.1755 31.9631 35.1755 27.9999C35.1755 24.0366 31.9626 20.8237 27.9994 20.8237C24.0361 20.8237 20.8232 24.0366 20.8232 27.9999C20.8232 31.9631 24.0361 35.176 27.9994 35.176Z" fill="white"/>
</g>
<defs>
<clipPath id="clip0_121_2510">
<rect width="56" height="56" fill="white"/>
</clipPath>
</defs>
</svg>
