<svg width="20" height="20" viewBox="0 0 20 20" fill="none" xmlns="http://www.w3.org/2000/svg">
<g clip-path="url(#clip0_229_803)">
<path d="M4.97852 15.0586C5.8607 15.0996 6.70967 15.4085 7.41113 15.9453L7.52539 16.0332H7.5C7.24291 16.0332 6.99502 16.1227 6.79785 16.2842L6.7168 16.3584C6.50898 16.5662 6.39163 16.8477 6.3916 17.1416C6.3916 17.4356 6.50895 17.7179 6.7168 17.9258C6.9246 18.1334 7.20627 18.25 7.5 18.25H10.3584V18.249C10.7762 18.2503 11.1857 18.1327 11.5381 17.9082C11.8087 17.7358 12.0362 17.5061 12.207 17.2373L14.5625 16.4531L14.5674 16.4512C14.6654 16.4177 14.7675 16.4003 14.8701 16.3965C13.2672 17.2259 12.1057 17.8722 11.2461 18.3242C10.2219 18.8628 9.64292 19.1115 9.12891 19.1934C8.64576 19.2703 8.15345 19.2091 7.28711 18.9453C6.39113 18.6725 5.25788 18.2396 3.43164 17.623L3.42383 17.6201L3.41602 17.6182L3.25879 17.5781C3.15235 17.5572 3.044 17.5471 2.93555 17.5498L2.77344 17.5635C2.61196 17.5853 2.45571 17.6337 2.31055 17.7061L2.17871 17.7803L0.75 18.6699V16.2061L2.59277 15.2881L2.5957 15.2861C2.81651 15.1749 3.05462 15.1039 3.29883 15.0742L3.54492 15.0586H4.97852ZM11.2832 7.7002V8.16699C11.2833 8.53157 11.4287 8.88088 11.6865 9.13867C11.9443 9.39646 12.2936 9.54194 12.6582 9.54199C13.0229 9.54199 13.373 9.39653 13.6309 9.13867C13.8885 8.8809 14.0331 8.53144 14.0332 8.16699V7.7002H19.25V10.917C19.2499 11.2042 19.1357 11.4795 18.9326 11.6826C18.7295 11.8857 18.4542 11.9999 18.167 12H7.15039C7.00813 12 6.86678 11.9724 6.73535 11.918C6.60392 11.8635 6.48439 11.7832 6.38379 11.6826C6.28328 11.5821 6.20382 11.4624 6.14941 11.3311C6.09504 11.1997 6.06644 11.0591 6.06641 10.917V7.7002H11.2832ZM7.15039 3.4082H9.78027L9.77344 3.4502H15.5332L15.5264 3.4082H18.167C18.4542 3.40827 18.7295 3.52256 18.9326 3.72559C19.1358 3.92875 19.25 4.20487 19.25 4.49219V4.9502H6.06641V4.49219C6.06641 4.2049 6.18067 3.92874 6.38379 3.72559C6.58695 3.52242 6.86307 3.4082 7.15039 3.4082Z" stroke="white" stroke-width="1.5"/>
</g>
<defs>
<clipPath id="clip0_229_803">
<rect width="20" height="20" fill="white"/>
</clipPath>
</defs>
</svg>
