<svg width="28" height="29" viewBox="0 0 28 29" fill="none" xmlns="http://www.w3.org/2000/svg">
<path d="M8.16634 9.25008C11.388 9.25008 13.9997 7.94425 13.9997 6.33341C13.9997 4.72258 11.388 3.41675 8.16634 3.41675C4.94468 3.41675 2.33301 4.72258 2.33301 6.33341C2.33301 7.94425 4.94468 9.25008 8.16634 9.25008Z" stroke="#252650" stroke-width="2.33333" stroke-linecap="round" stroke-linejoin="round"/>
<path d="M2.33301 6.3335V10.4168C2.33301 12.0274 4.94459 13.3335 8.16634 13.3335C11.3881 13.3335 13.9997 12.0274 13.9997 10.4168V6.3335" stroke="#252650" stroke-width="2.33333" stroke-linecap="round" stroke-linejoin="round"/>
<path d="M2.33301 10.4167V14.5001C2.33301 16.1107 4.94459 17.4167 8.16634 17.4167C11.3881 17.4167 13.9997 16.1107 13.9997 14.5001V10.4167" stroke="#252650" stroke-width="2.33333" stroke-linecap="round" stroke-linejoin="round"/>
<path d="M2.33301 14.5V18.5833C2.33301 20.1939 4.94459 21.5 8.16634 21.5C11.3881 21.5 13.9997 20.1939 13.9997 18.5833V14.5" stroke="#252650" stroke-width="2.33333" stroke-linecap="round" stroke-linejoin="round"/>
<path d="M2.33301 18.5835V22.6668C2.33301 24.2774 4.94459 25.5835 8.16634 25.5835C11.3881 25.5835 13.9997 24.2774 13.9997 22.6668V18.5835" stroke="#252650" stroke-width="2.33333" stroke-linecap="round" stroke-linejoin="round"/>
<path d="M19.8333 17.4168C23.055 17.4168 25.6667 16.111 25.6667 14.5002C25.6667 12.8893 23.055 11.5835 19.8333 11.5835C16.6117 11.5835 14 12.8893 14 14.5002C14 16.111 16.6117 17.4168 19.8333 17.4168Z" stroke="#252650" stroke-width="2.33333" stroke-linecap="round" stroke-linejoin="round"/>
<path d="M14 14.5V18.5833C14 20.1939 16.6116 21.5 19.8333 21.5C23.0551 21.5 25.6667 20.1939 25.6667 18.5833V14.5" stroke="#252650" stroke-width="2.33333" stroke-linecap="round" stroke-linejoin="round"/>
<path d="M14 18.5835V22.6668C14 24.2774 16.6116 25.5835 19.8333 25.5835C23.0551 25.5835 25.6667 24.2774 25.6667 22.6668V18.5835" stroke="#252650" stroke-width="2.33333" stroke-linecap="round" stroke-linejoin="round"/>
</svg>
