<svg width="28" height="29" viewBox="0 0 28 29" fill="none" xmlns="http://www.w3.org/2000/svg">
<path d="M14.0003 2.83545C12.8013 2.83545 11.6514 3.31175 10.8036 4.15957C9.95579 5.00739 9.47949 6.15728 9.47949 7.35628C9.47949 10.7629 10.8877 15.0003 11.5947 16.9218C11.7778 17.4117 12.107 17.8336 12.5376 18.1305C12.9682 18.4274 13.4796 18.585 14.0027 18.5819C15.0573 18.5819 16.0315 17.9496 16.4095 16.9276C17.1165 15.0143 18.5212 10.7979 18.5212 7.35628C18.5212 6.15728 18.0449 5.00739 17.197 4.15957C16.3492 3.31175 15.1993 2.83545 14.0003 2.83545ZM11.2295 7.35628C11.2295 6.62141 11.5214 5.91664 12.0411 5.39701C12.5607 4.87738 13.2655 4.58545 14.0003 4.58545C14.7352 4.58545 15.44 4.87738 15.9596 5.39701C16.4792 5.91664 16.7712 6.62141 16.7712 7.35628C16.7712 10.4538 15.475 14.4064 14.768 16.3209C14.708 16.4739 14.6026 16.6049 14.466 16.6963C14.3294 16.7876 14.1681 16.835 14.0038 16.8319C13.8389 16.8353 13.6768 16.7878 13.5397 16.696C13.4026 16.6042 13.2971 16.4724 13.2373 16.3186C12.5292 14.3913 11.2295 10.4176 11.2295 7.35628ZM14.0015 20.3343C13.2276 20.3343 12.4855 20.6417 11.9383 21.1889C11.3911 21.7361 11.0837 22.4783 11.0837 23.2521C11.0837 24.026 11.3911 24.7681 11.9383 25.3153C12.4855 25.8625 13.2276 26.1699 14.0015 26.1699C14.7754 26.1699 15.5175 25.8625 16.0647 25.3153C16.6119 24.7681 16.9193 24.026 16.9193 23.2521C16.9193 22.4783 16.6119 21.7361 16.0647 21.1889C15.5175 20.6417 14.7754 20.3343 14.0015 20.3343ZM12.8337 23.2521C12.8337 23.0988 12.8639 22.9469 12.9226 22.8052C12.9812 22.6635 13.0673 22.5348 13.1757 22.4263C13.2842 22.3179 13.4129 22.2319 13.5546 22.1732C13.6963 22.1145 13.8481 22.0843 14.0015 22.0843C14.1549 22.0843 14.3067 22.1145 14.4484 22.1732C14.5901 22.2319 14.7188 22.3179 14.8273 22.4263C14.9357 22.5348 15.0217 22.6635 15.0804 22.8052C15.1391 22.9469 15.1693 23.0988 15.1693 23.2521C15.1693 23.5618 15.0463 23.8589 14.8273 24.0779C14.6083 24.2969 14.3112 24.4199 14.0015 24.4199C13.6918 24.4199 13.3947 24.2969 13.1757 24.0779C12.9567 23.8589 12.8337 23.5618 12.8337 23.2521Z" fill="#252650"/>
</svg>
