<svg width="15" height="17" viewBox="0 0 15 17" fill="none" xmlns="http://www.w3.org/2000/svg">
<path d="M7.22244 4.54373C5.17283 4.54373 3.5196 6.19695 3.5196 8.24656C3.5196 10.2962 5.17283 11.9494 7.22244 11.9494C9.27205 11.9494 10.9253 10.2962 10.9253 8.24656C10.9253 6.19695 9.27205 4.54373 7.22244 4.54373ZM7.22244 10.6539C5.89792 10.6539 4.81511 9.57429 4.81511 8.24656C4.81511 6.91882 5.8947 5.83923 7.22244 5.83923C8.55017 5.83923 9.62976 6.91882 9.62976 8.24656C9.62976 9.57429 8.54695 10.6539 7.22244 10.6539ZM11.9404 4.39226C11.9404 4.87244 11.5537 5.25593 11.0767 5.25593C10.5966 5.25593 10.2131 4.86921 10.2131 4.39226C10.2131 3.91531 10.5998 3.52859 11.0767 3.52859C11.5537 3.52859 11.9404 3.91531 11.9404 4.39226ZM14.3928 5.26882C14.3381 4.11189 14.0738 3.08709 13.2262 2.24275C12.3819 1.39841 11.3571 1.13416 10.2002 1.07615C9.00779 1.00847 5.43386 1.00847 4.24148 1.07615C3.08777 1.13093 2.06296 1.39519 1.21541 2.23953C0.367847 3.08386 0.106812 4.10867 0.0488037 5.2656C-0.0188721 6.45798 -0.0188721 10.0319 0.0488037 11.2243C0.103589 12.3812 0.367847 13.406 1.21541 14.2504C2.06296 15.0947 3.08455 15.359 4.24148 15.417C5.43386 15.4846 9.00779 15.4846 10.2002 15.417C11.3571 15.3622 12.3819 15.0979 13.2262 14.2504C14.0706 13.406 14.3348 12.3812 14.3928 11.2243C14.4605 10.0319 14.4605 6.46121 14.3928 5.26882ZM12.8524 12.5037C12.601 13.1353 12.1144 13.6219 11.4796 13.8765C10.5289 14.2536 8.27302 14.1666 7.22244 14.1666C6.17185 14.1666 3.91277 14.2504 2.96531 13.8765C2.33367 13.6252 1.84705 13.1385 1.59246 12.5037C1.21541 11.553 1.30242 9.29714 1.30242 8.24656C1.30242 7.19597 1.21863 4.93689 1.59246 3.98943C1.84382 3.35779 2.33044 2.87117 2.96531 2.61658C3.91599 2.23953 6.17185 2.32654 7.22244 2.32654C8.27302 2.32654 10.5321 2.24275 11.4796 2.61658C12.1112 2.86794 12.5978 3.35457 12.8524 3.98943C13.2295 4.94011 13.1425 7.19597 13.1425 8.24656C13.1425 9.29714 13.2295 11.5562 12.8524 12.5037Z" fill="#252650"/>
</svg>
