<svg width="20" height="20" viewBox="0 0 20 20" fill="none" xmlns="http://www.w3.org/2000/svg">
<path d="M10 10.833C11.3807 10.833 12.5 9.71372 12.5 8.33301C12.5 6.9523 11.3807 5.83301 10 5.83301C8.61929 5.83301 7.5 6.9523 7.5 8.33301C7.5 9.71372 8.61929 10.833 10 10.833Z" stroke="white" stroke-width="1.5" stroke-linecap="round" stroke-linejoin="round"/>
<path d="M10.0002 1.6665C8.23205 1.6665 6.53636 2.36888 5.28612 3.61913C4.03588 4.86937 3.3335 6.56506 3.3335 8.33317C3.3335 9.90984 3.6685 10.9415 4.5835 12.0832L10.0002 18.3332L15.4168 12.0832C16.3318 10.9415 16.6668 9.90984 16.6668 8.33317C16.6668 6.56506 15.9645 4.86937 14.7142 3.61913C13.464 2.36888 11.7683 1.6665 10.0002 1.6665Z" stroke="white" stroke-width="1.5" stroke-linecap="round" stroke-linejoin="round"/>
</svg>
