<svg width="25" height="24" viewBox="0 0 25 24" fill="none" xmlns="http://www.w3.org/2000/svg">
<path fill-rule="evenodd" clip-rule="evenodd" d="M12.5 2C14.8869 2 17.1761 2.94821 18.864 4.63604C20.5518 6.32387 21.5 8.61305 21.5 11C21.5 14.074 19.824 16.59 18.058 18.395C17.1757 19.2871 16.2129 20.0958 15.182 20.811L14.756 21.101L14.556 21.234L14.179 21.474L13.843 21.679L13.427 21.921C13.1446 22.0822 12.8251 22.1669 12.5 22.1669C12.1749 22.1669 11.8554 22.0822 11.573 21.921L11.157 21.679L10.637 21.359L10.445 21.234L10.035 20.961C8.92283 20.2085 7.8869 19.3491 6.942 18.395C5.176 16.589 3.5 14.074 3.5 11C3.5 8.61305 4.44821 6.32387 6.13604 4.63604C7.82387 2.94821 10.1131 2 12.5 2ZM12.5 4C10.6435 4 8.86301 4.7375 7.55025 6.05025C6.2375 7.36301 5.5 9.14348 5.5 11C5.5 13.322 6.772 15.36 8.371 16.996C9.05853 17.692 9.80166 18.3308 10.593 18.906L11.051 19.232C11.199 19.3353 11.3413 19.4313 11.478 19.52L11.868 19.77L12.211 19.979L12.5 20.148L12.955 19.879L13.322 19.649C13.5173 19.525 13.7263 19.386 13.949 19.232L14.407 18.906C15.1983 18.3308 15.9415 17.692 16.629 16.996C18.228 15.361 19.5 13.322 19.5 11C19.5 9.14348 18.7625 7.36301 17.4497 6.05025C16.137 4.7375 14.3565 4 12.5 4ZM12.5 7C13.5609 7 14.5783 7.42143 15.3284 8.17157C16.0786 8.92172 16.5 9.93913 16.5 11C16.5 12.0609 16.0786 13.0783 15.3284 13.8284C14.5783 14.5786 13.5609 15 12.5 15C11.4391 15 10.4217 14.5786 9.67157 13.8284C8.92143 13.0783 8.5 12.0609 8.5 11C8.5 9.93913 8.92143 8.92172 9.67157 8.17157C10.4217 7.42143 11.4391 7 12.5 7ZM12.5 9C11.9696 9 11.4609 9.21071 11.0858 9.58579C10.7107 9.96086 10.5 10.4696 10.5 11C10.5 11.5304 10.7107 12.0391 11.0858 12.4142C11.4609 12.7893 11.9696 13 12.5 13C13.0304 13 13.5391 12.7893 13.9142 12.4142C14.2893 12.0391 14.5 11.5304 14.5 11C14.5 10.4696 14.2893 9.96086 13.9142 9.58579C13.5391 9.21071 13.0304 9 12.5 9Z" fill="white"/>
</svg>
