<svg width="33" height="32" viewBox="0 0 33 32" fill="none" xmlns="http://www.w3.org/2000/svg">
<rect x="0.333496" width="32" height="32" rx="4" fill="#FC4C17" fill-opacity="0.1"/>
<path d="M4.3335 13.3333V10.6667C4.3335 9.95942 4.61445 9.28115 5.11454 8.78105C5.61464 8.28095 6.29292 8 7.00016 8H9.66683M4.3335 13.3333C6.11083 13.3333 9.66683 12.2667 9.66683 8M4.3335 13.3333V18.6667M9.66683 8H23.0002M4.3335 18.6667V21.3333C4.3335 22.0406 4.61445 22.7189 5.11454 23.219C5.61464 23.719 6.29292 24 7.00016 24H9.66683M4.3335 18.6667C6.11083 18.6667 9.66683 19.7333 9.66683 24M28.3335 13.3333V10.6667C28.3335 9.95942 28.0525 9.28115 27.5524 8.78105C27.0524 8.28095 26.3741 8 25.6668 8H23.0002M28.3335 13.3333C26.5562 13.3333 23.0002 12.2667 23.0002 8M28.3335 13.3333V18.6667M28.3335 18.6667V21.3333C28.3335 22.0406 28.0525 22.7189 27.5524 23.219C27.0524 23.719 26.3741 24 25.6668 24H23.0002M28.3335 18.6667C26.5562 18.6667 23.0002 19.7333 23.0002 24M23.0002 24H9.66683" stroke="#FC4C17" stroke-width="2.66667" stroke-linecap="round" stroke-linejoin="round"/>
<path d="M16.3337 18.6663C17.8064 18.6663 19.0003 17.4724 19.0003 15.9997C19.0003 14.5269 17.8064 13.333 16.3337 13.333C14.8609 13.333 13.667 14.5269 13.667 15.9997C13.667 17.4724 14.8609 18.6663 16.3337 18.6663Z" stroke="#FC4C17" stroke-width="2.66667" stroke-linecap="round" stroke-linejoin="round"/>
</svg>
