<svg width="32" height="32" viewBox="0 0 32 32" fill="none" xmlns="http://www.w3.org/2000/svg">
<rect width="32" height="32" rx="4" fill="#F9AE15" fill-opacity="0.1"/>
<path d="M15.9999 15.9997C14.5333 15.9997 13.2777 15.4775 12.2333 14.433C11.1888 13.3886 10.6666 12.133 10.6666 10.6663C10.6666 9.19967 11.1888 7.94412 12.2333 6.89967C13.2777 5.85523 14.5333 5.33301 15.9999 5.33301C17.4666 5.33301 18.7221 5.85523 19.7666 6.89967C20.811 7.94412 21.3333 9.19967 21.3333 10.6663C21.3333 12.133 20.811 13.3886 19.7666 14.433C18.7221 15.4775 17.4666 15.9997 15.9999 15.9997ZM5.33325 26.6663V22.933C5.33325 22.1775 5.52792 21.4832 5.91725 20.8503C6.30659 20.2175 6.82303 19.7339 7.46659 19.3997C8.84436 18.7108 10.2444 18.1943 11.6666 17.8503C13.0888 17.5063 14.5333 17.3339 15.9999 17.333C17.4666 17.3321 18.911 17.5046 20.3333 17.8503C21.7555 18.1961 23.1555 18.7126 24.5333 19.3997C25.1777 19.733 25.6946 20.2166 26.0839 20.8503C26.4733 21.4841 26.6675 22.1783 26.6666 22.933V26.6663H5.33325ZM7.99992 23.9997H23.9999V22.933C23.9999 22.6886 23.939 22.4663 23.8173 22.2663C23.6955 22.0663 23.5341 21.9108 23.3333 21.7997C22.1333 21.1997 20.9221 20.7499 19.6999 20.4503C18.4777 20.1508 17.2444 20.0006 15.9999 19.9997C14.7555 19.9988 13.5221 20.149 12.2999 20.4503C11.0777 20.7517 9.86659 21.2015 8.66659 21.7997C8.46659 21.9108 8.30525 22.0663 8.18259 22.2663C8.05992 22.4663 7.99903 22.6886 7.99992 22.933V23.9997ZM15.9999 13.333C16.7333 13.333 17.3613 13.0721 17.8839 12.5503C18.4066 12.0286 18.6675 11.4006 18.6666 10.6663C18.6657 9.93212 18.4048 9.30456 17.8839 8.78367C17.363 8.26279 16.735 8.00145 15.9999 7.99967C15.2648 7.9979 14.6373 8.25923 14.1173 8.78367C13.5973 9.30812 13.3359 9.93567 13.3333 10.6663C13.3306 11.397 13.5919 12.025 14.1173 12.5503C14.6426 13.0757 15.2701 13.3366 15.9999 13.333Z" fill="#F9AE15"/>
</svg>
