<svg width="28" height="29" viewBox="0 0 28 29" fill="none" xmlns="http://www.w3.org/2000/svg">
<path d="M9.8 25C8.03056 25 6.538 24.3926 5.32233 23.1777C4.10667 21.9628 3.49922 20.4702 3.5 18.7C3.5 17.9611 3.62639 17.2417 3.87917 16.5417C4.13195 15.8417 4.49167 15.2097 4.95833 14.6458L9.1 9.65833L6.27083 4H21.7292L18.9 9.65833L23.0417 14.6458C23.5083 15.2097 23.8681 15.8417 24.1208 16.5417C24.3736 17.2417 24.5 17.9611 24.5 18.7C24.5 20.4694 23.8875 21.962 22.6625 23.1777C21.4375 24.3933 19.95 25.0008 18.2 25H9.8ZM14 19.1667C13.3583 19.1667 12.8092 18.9384 12.3527 18.4818C11.8961 18.0253 11.6674 17.4758 11.6667 16.8333C11.6659 16.1909 11.8946 15.6418 12.3527 15.186C12.8108 14.7302 13.3599 14.5016 14 14.5C14.6401 14.4984 15.1896 14.7271 15.6485 15.186C16.1074 15.6449 16.3357 16.194 16.3333 16.8333C16.331 17.4727 16.1027 18.0222 15.6485 18.4818C15.1943 18.9415 14.6448 19.1698 14 19.1667ZM11.2292 8.66667H16.7708L17.9375 6.33333H10.0625L11.2292 8.66667ZM9.8 22.6667H18.2C19.3083 22.6667 20.2467 22.2828 21.0152 21.5152C21.7836 20.7475 22.1674 19.8091 22.1667 18.7C22.1667 18.2333 22.0838 17.7814 21.9182 17.3443C21.7525 16.9072 21.5242 16.5133 21.2333 16.1625L16.9458 11H11.0833L6.76667 16.1333C6.475 16.4833 6.24672 16.8819 6.08183 17.3292C5.91694 17.7764 5.83411 18.2333 5.83333 18.7C5.83333 19.8083 6.21756 20.7467 6.986 21.5152C7.75445 22.2836 8.69244 22.6674 9.8 22.6667Z" fill="#252650"/>
</svg>
