<svg width="62" height="72" viewBox="0 0 62 72" fill="none" xmlns="http://www.w3.org/2000/svg">
<path d="M23.3047 1.86133C28.0849 0.380366 33.1754 3.64845 34.5781 9.55566V9.55469L35.1592 12.0283L35.833 14.8984L37.7559 12.6641L39.3066 10.8633C41.1734 8.69445 43.5296 7.66992 45.8242 7.66992C48.1188 7.66998 50.4751 8.69451 52.3418 10.8633L52.5352 11.0879C56.3257 15.4917 56.2951 22.5209 52.5586 26.665L52.5469 26.6787L52.5352 26.6914L50.9854 28.4922L49.5029 30.2148L51.6689 30.9014L53.7959 31.5742V31.5752C58.5049 33.0846 61.5736 38.9406 60.1553 45.1201L60.1172 45.2861V45.4951C58.7163 51.2979 53.9634 54.3116 49.335 53.1543L48.8838 53.0283L46.7617 52.3555L44.2441 51.5586L44.8477 54.1289L45.4277 56.5967V56.5977C46.8168 62.6494 43.7081 68.4502 39.0762 70.0713H38.9111L38.6943 70.1387C34.0634 71.5733 29.1408 68.5512 27.5625 62.9902L27.4209 62.4443L26.8398 59.9717L26.166 57.1016L24.2432 59.3359L22.6924 61.1367C20.8243 63.3071 18.4677 64.3301 16.1992 64.3301C13.9342 64.33 11.6388 63.3111 9.87402 61.1631L9.8623 61.1504L9.85156 61.1367L9.6582 60.9121C5.87918 56.5217 5.87918 49.4735 9.6582 45.083L11.208 43.2822L12.6904 41.5605L10.5244 40.874L8.39258 40.1982L8.38379 40.1953L7.92969 40.04C3.29732 38.3107 0.47224 32.6301 1.84375 26.6543L1.88184 26.4893V26.2861C3.32328 20.5339 8.32649 17.4954 13.1035 18.9678L15.0029 19.6309L17.3662 20.4541L16.9795 17.9824L16.5918 15.5059L16.583 15.4541L16.5713 15.4023C15.1823 9.35068 18.291 3.54982 22.9229 1.92871H23.0879L23.3047 1.86133Z" stroke="white" stroke-width="3"/>
</svg>
