<svg width="56" height="56" viewBox="0 0 56 56" fill="none" xmlns="http://www.w3.org/2000/svg">
<g clip-path="url(#clip0_121_2546)">
<path d="M28 0C20.5739 0 13.452 2.94999 8.20101 8.20101C2.94999 13.452 0 20.5739 0 28C0 35.4261 2.94999 42.548 8.20101 47.799C13.452 53.05 20.5739 56 28 56C35.4261 56 42.548 53.05 47.799 47.799C53.05 42.548 56 35.4261 56 28C56 20.5739 53.05 13.452 47.799 8.20101C42.548 2.94999 35.4261 0 28 0ZM39.27 30.0767L22.05 38.6867C21.6948 38.8657 21.2997 38.9509 20.9023 38.9342C20.5049 38.9176 20.1184 38.7996 19.7794 38.5915C19.4404 38.3835 19.1602 38.0922 18.9655 37.7454C18.7707 37.3986 18.6679 37.0077 18.6667 36.61V19.39C18.6639 18.9903 18.7638 18.5965 18.9569 18.2465C19.15 17.8965 19.4298 17.602 19.7694 17.3912C20.1091 17.1804 20.4972 17.0604 20.8965 17.0427C21.2958 17.0249 21.693 17.1101 22.05 17.29L39.27 25.9C39.6583 26.0935 39.9849 26.3915 40.2132 26.7604C40.4416 27.1292 40.5625 27.5545 40.5625 27.9883C40.5625 28.4222 40.4416 28.8474 40.2132 29.2163C39.9849 29.5852 39.6583 29.8831 39.27 30.0767Z" fill="white"/>
</g>
<defs>
<clipPath id="clip0_121_2546">
<rect width="56" height="56" fill="white"/>
</clipPath>
</defs>
</svg>
