<svg width="28" height="29" viewBox="0 0 28 29" fill="none" xmlns="http://www.w3.org/2000/svg">
<path d="M19.9733 12.0267C19.3174 11.3707 18.4277 11.0022 17.5 11.0022C16.5723 11.0022 15.6826 11.3707 15.0267 12.0267C14.3707 12.6826 14.0022 13.5723 14.0022 14.5C14.0022 15.4277 14.3707 16.3174 15.0267 16.9733C15.3515 17.2981 15.7371 17.5558 16.1614 17.7316C16.5858 17.9073 17.0407 17.9978 17.5 17.9978C17.9593 17.9978 18.4142 17.9073 18.8386 17.7316C19.2629 17.5558 19.6485 17.2981 19.9733 16.9733C20.2981 16.6485 20.5558 16.2629 20.7316 15.8386C20.9073 15.4142 20.9978 14.9593 20.9978 14.5C20.9978 14.0407 20.9073 13.5858 20.7316 13.1614C20.5558 12.7371 20.2981 12.3515 19.9733 12.0267ZM8.16667 7.5V21.5H26.8333V7.5H8.16667ZM24.5 16.8333C23.8817 16.8333 23.2867 17.0783 22.855 17.5217C22.4117 17.9533 22.1667 18.5483 22.1667 19.1667H12.8333C12.8333 18.5483 12.5883 17.9533 12.145 17.5217C11.7133 17.0783 11.1183 16.8333 10.5 16.8333V12.1667C11.1183 12.1667 11.7133 11.9217 12.145 11.4783C12.5883 11.0467 12.8333 10.4517 12.8333 9.83333H22.1667C22.1667 10.4517 22.4117 11.0467 22.855 11.4783C23.2867 11.9217 23.8817 12.1667 24.5 12.1667V16.8333ZM5.83333 9.83333H3.5C2.85833 9.83333 2.33333 9.30833 2.33333 8.66667C2.33333 8.025 2.85833 7.5 3.5 7.5H5.83333V9.83333ZM5.83333 15.6667H2.33333C1.69167 15.6667 1.16667 15.1417 1.16667 14.5C1.16667 13.8583 1.69167 13.3333 2.33333 13.3333H5.83333V15.6667ZM5.83333 21.5H1.16667C0.522667 21.5 0 20.975 0 20.3333C0 19.6917 0.522667 19.1667 1.16667 19.1667H5.83333V21.5Z" fill="#252650"/>
</svg>
