<svg width="20" height="20" viewBox="0 0 20 20" fill="none" xmlns="http://www.w3.org/2000/svg">
<path d="M16.6667 16.6668H6.66667C7.21198 15.9479 7.5049 15.0691 7.5 14.1668V11.6668H12.5C12.721 11.6668 12.933 11.579 13.0893 11.4227C13.2455 11.2665 13.3333 11.0545 13.3333 10.8335C13.3333 10.6125 13.2455 10.4005 13.0893 10.2442C12.933 10.0879 12.721 10.0001 12.5 10.0001H7.5V7.40848C7.49928 6.51042 7.79525 5.63727 8.3419 4.92475C8.88855 4.21223 9.65526 3.70025 10.5229 3.46838C11.3905 3.23651 12.3104 3.29774 13.1396 3.64256C13.9688 3.98738 14.6609 4.59646 15.1083 5.37515C15.1635 5.46994 15.2368 5.55292 15.324 5.61933C15.4113 5.68574 15.5108 5.73427 15.6169 5.76214C15.723 5.79001 15.8335 5.79667 15.9421 5.78174C16.0508 5.76682 16.1554 5.73059 16.25 5.67515C16.4406 5.56521 16.58 5.38436 16.6378 5.17203C16.6955 4.95971 16.667 4.73316 16.5583 4.54181C15.9248 3.44853 14.9488 2.59439 13.7811 2.11141C12.6135 1.62844 11.3193 1.54353 10.0985 1.86982C8.8778 2.1961 7.79854 2.91541 7.02758 3.91655C6.25663 4.91769 5.83692 6.1449 5.83333 7.40848V10.0001H3.33333C3.11232 10.0001 2.90036 10.0879 2.74408 10.2442C2.5878 10.4005 2.5 10.6125 2.5 10.8335C2.5 11.0545 2.5878 11.2665 2.74408 11.4227C2.90036 11.579 3.11232 11.6668 3.33333 11.6668H5.83333V14.1668C5.83333 14.8299 5.56994 15.4657 5.1011 15.9346C4.63226 16.4034 3.99637 16.6668 3.33333 16.6668C3.11232 16.6668 2.90036 16.7546 2.74408 16.9109C2.5878 17.0672 2.5 17.2791 2.5 17.5001C2.5 17.7212 2.5878 17.9331 2.74408 18.0894C2.90036 18.2457 3.11232 18.3335 3.33333 18.3335H16.6667C16.8877 18.3335 17.0996 18.2457 17.2559 18.0894C17.4122 17.9331 17.5 17.7212 17.5 17.5001C17.5 17.2791 17.4122 17.0672 17.2559 16.9109C17.0996 16.7546 16.8877 16.6668 16.6667 16.6668Z" fill="white"/>
</svg>
