<svg width="15" height="17" viewBox="0 0 15 17" fill="none" xmlns="http://www.w3.org/2000/svg">
<path d="M14.4367 6.76468C13.0179 6.76807 11.634 6.3256 10.4803 5.49979V11.2593C10.4799 12.326 10.1538 13.3672 9.54573 14.2437C8.93762 15.1201 8.07644 15.79 7.07734 16.1637C6.07824 16.5375 4.98884 16.5973 3.95481 16.3353C2.92078 16.0732 1.9914 15.5016 1.29096 14.6971C0.590513 13.8926 0.152383 12.8934 0.0351522 11.8331C-0.0820788 10.7728 0.127177 9.70203 0.63494 8.7639C1.1427 7.82577 1.92477 7.06502 2.87657 6.58336C3.82836 6.10171 4.90452 5.92211 5.96115 6.06858V8.96543C5.47763 8.81334 4.95843 8.81792 4.47767 8.97852C3.99692 9.13912 3.5792 9.44751 3.28418 9.85967C2.98915 10.2718 2.8319 10.7667 2.83489 11.2735C2.83788 11.7804 3.00094 12.2733 3.3008 12.682C3.60066 13.0907 4.02198 13.3941 4.50459 13.549C4.98721 13.704 5.50643 13.7024 5.98812 13.5447C6.46981 13.3869 6.88932 13.0809 7.18676 12.6705C7.4842 12.2601 7.64435 11.7662 7.64434 11.2593V0H10.4803C10.4783 0.239488 10.4984 0.47865 10.5402 0.714463C10.6388 1.24088 10.8437 1.74165 11.1424 2.18616C11.4411 2.63067 11.8274 3.00957 12.2776 3.29968C12.918 3.72316 13.6689 3.94888 14.4367 3.94872V6.76468Z" fill="#252650"/>
</svg>
