<svg width="24" height="25" viewBox="0 0 24 25" fill="none" xmlns="http://www.w3.org/2000/svg">
<path d="M12 2.5C17.523 2.5 22 6.977 22 12.5C22 18.023 17.523 22.5 12 22.5C6.477 22.5 2 18.023 2 12.5C2 6.977 6.477 2.5 12 2.5ZM12 4.5C10.0098 4.50108 8.09137 5.24399 6.61949 6.58364C5.14761 7.92329 4.22793 9.76348 4.04006 11.7448C3.8522 13.7262 4.40963 15.7065 5.60349 17.2989C6.79736 18.8913 8.54193 19.9815 10.4965 20.3566C12.4511 20.7317 14.4753 20.3648 16.1739 19.3275C17.8724 18.2902 19.1233 16.657 19.6823 14.7469C20.2413 12.8368 20.0682 10.7868 19.1969 8.99748C18.3255 7.20811 16.8184 5.8078 14.97 5.07C15.0582 5.67788 14.9576 6.29818 14.682 6.84708C14.4063 7.39599 13.9688 7.84704 13.4285 8.13931C12.8883 8.43157 12.2713 8.55096 11.661 8.48134C11.0507 8.41171 10.4765 8.15644 10.016 7.75C9.82473 7.58188 9.70481 7.34712 9.6807 7.09361C9.65659 6.8401 9.7301 6.58694 9.88623 6.38577C10.0424 6.1846 10.2694 6.05058 10.5209 6.01104C10.7725 5.9715 11.0297 6.02943 11.24 6.173L11.339 6.25C11.4604 6.35703 11.6059 6.43302 11.7631 6.47142C11.9203 6.50983 12.0844 6.50952 12.2415 6.47051C12.3985 6.4315 12.5438 6.35496 12.6647 6.24747C12.7857 6.13997 12.8788 6.00473 12.9359 5.85335C12.9931 5.70197 13.0127 5.53897 12.993 5.37835C12.9733 5.21774 12.915 5.0643 12.8229 4.9312C12.7309 4.79811 12.6079 4.68934 12.4646 4.61424C12.3212 4.53913 12.1618 4.49993 12 4.5ZM14.64 15.732C14.8436 15.9018 14.9715 16.1455 14.9955 16.4095C15.0195 16.6735 14.9377 16.9363 14.768 17.14C14.096 17.947 13.124 18.5 12 18.5C10.876 18.5 9.904 17.947 9.232 17.14C9.06974 16.9355 8.99388 16.6756 9.02063 16.416C9.04738 16.1563 9.17463 15.9173 9.37518 15.7502C9.57573 15.5831 9.83369 15.501 10.0939 15.5215C10.3542 15.542 10.5961 15.6635 10.768 15.86C11.127 16.29 11.566 16.5 12 16.5C12.434 16.5 12.873 16.29 13.232 15.86C13.4018 15.6564 13.6455 15.5285 13.9095 15.5045C14.1735 15.4805 14.4363 15.5623 14.64 15.732ZM8.5 10.5C8.89782 10.5 9.27936 10.658 9.56066 10.9393C9.84196 11.2206 10 11.6022 10 12C10 12.3978 9.84196 12.7794 9.56066 13.0607C9.27936 13.342 8.89782 13.5 8.5 13.5C8.10218 13.5 7.72064 13.342 7.43934 13.0607C7.15804 12.7794 7 12.3978 7 12C7 11.6022 7.15804 11.2206 7.43934 10.9393C7.72064 10.658 8.10218 10.5 8.5 10.5ZM15.5 10.5C15.8978 10.5 16.2794 10.658 16.5607 10.9393C16.842 11.2206 17 11.6022 17 12C17 12.3978 16.842 12.7794 16.5607 13.0607C16.2794 13.342 15.8978 13.5 15.5 13.5C15.1022 13.5 14.7206 13.342 14.4393 13.0607C14.158 12.7794 14 12.3978 14 12C14 11.6022 14.158 11.2206 14.4393 10.9393C14.7206 10.658 15.1022 10.5 15.5 10.5Z" fill="white"/>
</svg>
