<svg width="15" height="17" viewBox="0 0 15 17" fill="none" xmlns="http://www.w3.org/2000/svg">
<path d="M12.2756 3.1292C10.9253 1.77568 9.12705 1.03125 7.21602 1.03125C3.27148 1.03125 0.0617188 4.24102 0.0617188 8.18555C0.0617188 9.44561 0.39043 10.6767 1.01562 11.7627L0.000488281 15.4688L3.79355 14.4729C4.8377 15.0434 6.01397 15.3431 7.21279 15.3431H7.21602C11.1573 15.3431 14.438 12.1333 14.438 8.18877C14.438 6.27773 13.6259 4.48271 12.2756 3.1292ZM7.21602 14.1378C6.14609 14.1378 5.09873 13.851 4.18672 13.3096L3.9708 13.1807L1.72139 13.7704L2.3208 11.5758L2.179 11.3502C1.58281 10.4027 1.27021 9.31025 1.27021 8.18555C1.27021 4.90811 3.93857 2.23975 7.21924 2.23975C8.80801 2.23975 10.3001 2.8585 11.4216 3.9832C12.5431 5.10791 13.2327 6.6 13.2295 8.18877C13.2295 11.4694 10.4935 14.1378 7.21602 14.1378ZM10.4773 9.68408C10.3001 9.59385 9.42031 9.16201 9.25596 9.104C9.0916 9.04277 8.97236 9.01377 8.85313 9.19424C8.73389 9.37471 8.39229 9.77432 8.28594 9.89678C8.18281 10.016 8.07646 10.0321 7.89922 9.94189C6.84863 9.4166 6.15898 9.0041 5.46611 7.81494C5.28242 7.49912 5.6498 7.52168 5.99141 6.83848C6.04941 6.71924 6.02041 6.61611 5.97529 6.52588C5.93018 6.43564 5.57246 5.55586 5.42422 5.19814C5.2792 4.8501 5.13096 4.89844 5.02139 4.89199C4.91826 4.88555 4.79902 4.88555 4.67979 4.88555C4.56055 4.88555 4.36719 4.93066 4.20283 5.10791C4.03848 5.28838 3.57764 5.72021 3.57764 6.6C3.57764 7.47979 4.21895 8.33057 4.30596 8.44981C4.39619 8.56904 5.56602 10.3737 7.36103 11.1504C8.49541 11.6402 8.94014 11.6821 9.50732 11.5983C9.85215 11.5468 10.5644 11.1665 10.7126 10.7476C10.8608 10.3286 10.8608 9.9709 10.8157 9.89678C10.7738 9.81621 10.6546 9.77109 10.4773 9.68408Z" fill="#252650"/>
</svg>
