<svg width="19" height="17" viewBox="0 0 19 17" fill="none" xmlns="http://www.w3.org/2000/svg">
<path d="M17.7139 3.99877C17.5115 3.23661 16.9151 2.63636 16.1579 2.43265C14.7854 2.0625 9.2817 2.0625 9.2817 2.0625C9.2817 2.0625 3.77805 2.0625 2.40549 2.43265C1.64826 2.63639 1.05187 3.23661 0.849459 3.99877C0.481689 5.38022 0.481689 8.2625 0.481689 8.2625C0.481689 8.2625 0.481689 11.1448 0.849459 12.5262C1.05187 13.2884 1.64826 13.8636 2.40549 14.0673C3.77805 14.4375 9.2817 14.4375 9.2817 14.4375C9.2817 14.4375 14.7854 14.4375 16.1579 14.0673C16.9151 13.8636 17.5115 13.2884 17.7139 12.5262C18.0817 11.1448 18.0817 8.2625 18.0817 8.2625C18.0817 8.2625 18.0817 5.38022 17.7139 3.99877ZM7.48169 10.8794V5.64561L12.0817 8.26257L7.48169 10.8794Z" fill="#252650"/>
</svg>
