<svg xmlns="http://www.w3.org/2000/svg" xmlns:xlink="http://www.w3.org/1999/xlink" width="846" zoomAndPan="magnify" viewBox="0 0 634.5 513.749985" height="685" preserveAspectRatio="xMidYMid meet" version="1.2"><defs><clipPath id="fe2cf515bb"><path d="M 171 202 L 463 202 L 463 297.59375 L 171 297.59375 Z M 171 202 "/></clipPath><clipPath id="9e0d934443"><path d="M 133.226562 0.078125 L 500.4375 0.078125 L 500.4375 176 L 133.226562 176 Z M 133.226562 0.078125 "/></clipPath></defs><g id="c2b0fd91de"><path style=" stroke:none;fill-rule:evenodd;fill:#fdb40b;fill-opacity:1;" d="M 263.632812 174.894531 C 261.515625 185.476562 250.335938 192.5 238.871094 190.175781 C 221.703125 186.695312 217.070312 162.480469 231.945312 152.664062 C 246.925781 142.777344 267.671875 154.703125 263.632812 174.894531 Z M 263.632812 174.894531 "/><g clip-rule="nonzero" clip-path="url(#fe2cf515bb)"><path style=" stroke:none;fill-rule:evenodd;fill:#2aa631;fill-opacity:1;" d="M 270.273438 219.503906 C 267.320312 221.707031 266.546875 222.953125 262.574219 224.3125 C 265.558594 240.996094 269.683594 257.777344 269.761719 275.9375 C 269.636719 275.769531 269.480469 275.300781 269.425781 275.414062 L 265.71875 268.0625 C 261.730469 261.136719 255.707031 255.378906 249.171875 250.441406 C 227.003906 233.683594 198.097656 229.703125 212.566406 242.9375 C 214.75 244.933594 216.425781 246.277344 218.722656 248.214844 C 221.007812 250.140625 222.078125 252.035156 224.265625 254.023438 C 226.472656 256.027344 227.9375 257.816406 229.996094 259.667969 C 232.75 262.148438 233.476562 262.71875 235.640625 265.363281 C 237.71875 267.894531 245.195312 275.695312 246.105469 278.121094 C 229.917969 278.753906 180.011719 285.109375 171.480469 293.167969 C 171.332031 297.640625 172.109375 297.5 176.386719 297.4375 C 221.59375 296.792969 269.730469 297.414062 315.097656 297.355469 C 331.070312 297.339844 457.824219 298.195312 462.128906 296.742188 C 462.722656 292.390625 460.25 291.46875 456.867188 290.164062 C 438.726562 283.175781 401.894531 278.472656 383.414062 277.632812 C 386.574219 274.0625 414.148438 245.921875 412.007812 239.414062 C 409.328125 234.503906 400.980469 236.839844 396.640625 238.957031 C 389.050781 242.664062 379.734375 251.375 374.984375 258.667969 C 371.578125 263.902344 369.886719 270.871094 368.730469 272.667969 C 368.3125 253.03125 372.027344 236.355469 374.476562 217.484375 C 374.140625 215.976562 371.207031 206.015625 370.617188 204.984375 C 366.230469 224.632812 363.820312 230.089844 361.296875 251.363281 L 359.613281 266.769531 C 359.582031 266.667969 359.492188 267.191406 359.398438 267.386719 C 358.640625 248.328125 342.777344 220.609375 327.042969 224.238281 C 323.628906 230.976562 331.226562 245.203125 334.292969 251.320312 C 336.585938 255.894531 338.328125 259.394531 340.296875 263.789062 C 342.023438 267.644531 345.058594 272.199219 346.246094 275.417969 L 291.183594 275.34375 C 292.964844 269.765625 295.871094 263.914062 297.761719 258.164062 C 299.730469 252.179688 301.707031 246.136719 303.839844 240.042969 C 305.574219 235.097656 315.902344 207.011719 312.9375 203.140625 C 311.753906 201.882812 310.578125 201.472656 307.300781 202.917969 C 303.410156 204.628906 299.140625 208.257812 296.207031 211.125 C 279.023438 227.941406 278.664062 248.453125 277.902344 270.316406 C 276.378906 251.429688 273.640625 237.027344 270.273438 219.503906 Z M 270.273438 219.503906 "/></g><path style=" stroke:none;fill-rule:evenodd;fill:#fdc61e;fill-opacity:1;" d="M 363.582031 172.421875 C 369.046875 198.304688 407.488281 193.820312 404.253906 165.269531 C 402.617188 150.835938 383.460938 143.894531 372.378906 151.453125 L 369.582031 153.679688 C 365.09375 157.960938 362.066406 165.242188 363.582031 172.421875 Z M 363.582031 172.421875 "/><g clip-rule="nonzero" clip-path="url(#9e0d934443)"><path style=" stroke:none;fill-rule:evenodd;fill:#f83339;fill-opacity:1;" d="M 159.40625 175.605469 C 165.203125 92.328125 234.527344 26.324219 316.722656 26.980469 C 387.261719 27.542969 450.644531 77.011719 469.078125 146.109375 C 473.0625 161.054688 472.378906 165.695312 473.757812 175.605469 L 500.410156 175.605469 C 500.417969 153.472656 491.09375 121.855469 483.027344 105.753906 C 467.277344 74.324219 448.792969 53.011719 420.394531 32.378906 C 392.902344 12.410156 352.34375 0.320312 316.722656 0.0820312 C 290.910156 -0.09375 262.976562 5.621094 242.382812 15.519531 C 201.820312 35.019531 170.566406 63.601562 150.964844 105.617188 C 143.015625 122.65625 133.152344 152.839844 133.257812 175.605469 Z M 159.40625 175.605469 "/></g><path style=" stroke:none;fill-rule:evenodd;fill:#f9ae15;fill-opacity:1;" d="M 185.417969 175.605469 C 190.832031 104.46875 246.113281 51.5625 317.050781 48.6875 C 396.105469 52.355469 437.785156 102.667969 449.164062 175.605469 L 477.109375 175.605469 C 476.867188 156.621094 468.886719 130.0625 461.96875 116.433594 C 448.242188 89.40625 432.132812 71.074219 407.390625 53.332031 C 383.433594 36.15625 348.09375 25.757812 317.050781 25.554688 C 294.558594 25.402344 270.214844 30.316406 252.273438 38.832031 C 216.925781 55.597656 189.691406 80.183594 172.609375 116.316406 C 165.789062 130.746094 157.351562 156.136719 157.183594 175.605469 Z M 185.417969 175.605469 "/><path style=" stroke:none;fill-rule:evenodd;fill:#2c97a9;fill-opacity:1;" d="M 216.621094 175.605469 C 220.527344 117.347656 260.296875 76.226562 316.464844 74 C 378.578125 75.742188 414.9375 114.273438 424.285156 175.605469 L 449.355469 175.605469 C 449.199219 159.984375 440.851562 135.878906 435.148438 124.648438 C 405.898438 68.027344 367.574219 49.023438 317.050781 48.6875 C 267.742188 48.359375 220.953125 78.246094 199.058594 124.550781 C 193.511719 136.285156 185.539062 159.550781 185.277344 175.605469 Z M 216.621094 175.605469 "/><path style=" stroke:none;fill-rule:evenodd;fill:#f95269;fill-opacity:1;" d="M 363.582031 172.421875 C 362.066406 165.242188 365.09375 157.960938 369.582031 153.679688 L 372.378906 151.453125 C 383.460938 143.894531 402.617188 150.835938 404.253906 165.269531 C 407.488281 193.820312 369.046875 198.304688 363.582031 172.421875 Z M 370.617188 204.984375 C 371.207031 206.015625 374.140625 215.976562 374.476562 217.484375 C 376.386719 218.625 377.398438 222.625 384.21875 224.347656 C 401.714844 228.757812 408.992188 214.347656 404.226562 197.296875 C 409.667969 202 418.175781 208.597656 427.390625 203.753906 C 435.199219 199.644531 439.324219 189.542969 434.214844 182.015625 C 430.503906 176.542969 426.695312 176.9375 420.867188 173.140625 L 425.367188 171.972656 C 433.855469 168.789062 441.25 160.660156 437.847656 149.886719 C 433.023438 134.625 414.203125 140.414062 413.761719 140.402344 C 410.597656 136.539062 412.894531 136.667969 413.238281 131.179688 C 413.535156 126.410156 412.171875 121.5 409.390625 118.585938 L 408.722656 117.929688 C 404.417969 113.492188 400.984375 112.867188 393.890625 113.054688 C 387.289062 114.765625 380.128906 123.78125 380.1875 132.277344 C 369.621094 107.765625 352.878906 117.441406 348.234375 127.402344 C 346.765625 130.550781 346.601562 133.785156 347.402344 137.199219 C 348.195312 140.574219 349.777344 142.640625 351.359375 144.667969 C 352.558594 146.203125 352.917969 146.207031 354.148438 147.558594 C 355.503906 149.050781 355.617188 149.742188 356.871094 151.183594 C 350.546875 149.421875 346.238281 146.804688 338.242188 149.265625 C 324.820312 153.390625 322.429688 168.570312 331.476562 176.699219 C 336.792969 181.472656 341.964844 180.085938 349.480469 180.75 C 345.539062 181.496094 330.441406 194.863281 340.28125 208.328125 C 343.363281 212.546875 349.964844 215.15625 357 213.78125 C 360.046875 213.183594 362.464844 211.953125 364.613281 210.640625 C 365.863281 209.878906 366.796875 209.382812 367.902344 208.164062 L 369.835938 205.738281 C 369.933594 205.632812 370.140625 205.441406 370.222656 205.359375 C 370.304688 205.273438 370.476562 205.097656 370.617188 204.984375 Z M 370.617188 204.984375 "/><path style=" stroke:none;fill-rule:evenodd;fill:#ffb303;fill-opacity:1;" d="M 189.324219 166.613281 C 195.324219 173.832031 202.496094 174.507812 214.488281 175.484375 C 200.589844 180.316406 191.785156 196.429688 202.761719 209.402344 C 211.851562 220.152344 231.046875 209.925781 235.636719 200.980469 L 236.21875 199.5 C 236.261719 199.449219 236.425781 199.1875 238.144531 198.722656 C 238.636719 215.289062 245.921875 224.121094 262.574219 224.3125 C 266.546875 222.953125 267.320312 221.707031 270.273438 219.503906 C 279.875 208.347656 271.875 193.886719 270.203125 187.359375 C 277.042969 189.882812 281.71875 191.980469 290.746094 190.066406 C 308.101562 186.386719 312.289062 161.84375 291.136719 155.128906 C 289.144531 154.496094 288.339844 154.351562 285.921875 154.085938 C 285.203125 154.003906 283.984375 153.933594 283.347656 153.753906 C 280.527344 152.960938 282.0625 153.554688 280.683594 152.277344 C 290.746094 146.605469 298.089844 129.558594 285.804688 119.21875 C 278.199219 112.820312 264.890625 116.292969 259.339844 125.207031 C 257.824219 127.648438 256.171875 131.328125 254.609375 133.304688 C 252.972656 129.816406 252.332031 125.863281 250.128906 121.453125 C 248.1875 117.558594 245.59375 114.167969 242.894531 111.949219 C 227.796875 102.609375 213.867188 114.539062 217.28125 132.253906 C 218.453125 138.347656 221.554688 143.769531 221.953125 145.398438 C 218.257812 144.464844 216.320312 141.984375 210.980469 140.792969 C 193.910156 132.945312 178.234375 151.464844 189.324219 166.613281 Z M 189.324219 166.613281 "/><path style=" stroke:none;fill-rule:evenodd;fill:#f95921;fill-opacity:1;" d="M 266.273438 173.132812 C 270.308594 152.945312 249.566406 141.019531 234.585938 150.902344 C 219.710938 160.71875 224.34375 184.9375 241.511719 188.417969 C 252.976562 190.738281 264.15625 183.71875 266.273438 173.132812 Z M 266.273438 173.132812 "/><g style="fill:#0a99a2;fill-opacity:1;"><g transform="translate(51.707938, 384.92621)"><path style="stroke:none" d="M 23.59375 1.578125 C 20.34375 1.578125 17.40625 1.117188 14.78125 0.203125 C 12.15625 -0.710938 9.925781 -1.835938 8.09375 -3.171875 C 6.257812 -4.515625 4.84375 -5.972656 3.84375 -7.546875 C 2.851562 -9.117188 2.359375 -10.535156 2.359375 -11.796875 C 2.359375 -13.367188 2.894531 -14.675781 3.96875 -15.71875 C 5.039062 -16.769531 6.46875 -17.296875 8.25 -17.296875 C 9.71875 -17.296875 10.910156 -16.890625 11.828125 -16.078125 C 12.742188 -15.265625 13.703125 -14.359375 14.703125 -13.359375 C 15.703125 -12.367188 16.921875 -11.46875 18.359375 -10.65625 C 19.796875 -9.84375 21.800781 -9.4375 24.375 -9.4375 C 27.519531 -9.4375 29.878906 -10.085938 31.453125 -11.390625 C 33.023438 -12.703125 33.8125 -14.144531 33.8125 -15.71875 C 33.8125 -17.289062 33.078125 -18.535156 31.609375 -19.453125 C 30.140625 -20.367188 28.289062 -21.191406 26.0625 -21.921875 C 23.832031 -22.660156 21.429688 -23.410156 18.859375 -24.171875 C 16.296875 -24.929688 13.898438 -25.941406 11.671875 -27.203125 C 9.441406 -28.460938 7.59375 -30.070312 6.125 -32.03125 C 4.664062 -34 3.9375 -36.554688 3.9375 -39.703125 C 3.9375 -42.066406 4.394531 -44.269531 5.3125 -46.3125 C 6.226562 -48.351562 7.585938 -50.144531 9.390625 -51.6875 C 11.203125 -53.238281 13.414062 -54.445312 16.03125 -55.3125 C 18.65625 -56.175781 21.695312 -56.609375 25.15625 -56.609375 C 28.300781 -56.609375 31.128906 -56.175781 33.640625 -55.3125 C 36.160156 -54.445312 38.3125 -53.359375 40.09375 -52.046875 C 41.875 -50.734375 43.238281 -49.316406 44.1875 -47.796875 C 45.132812 -46.285156 45.609375 -44.898438 45.609375 -43.640625 C 45.609375 -42.066406 45.066406 -40.753906 43.984375 -39.703125 C 42.910156 -38.660156 41.484375 -38.140625 39.703125 -38.140625 C 38.710938 -38.140625 37.863281 -38.320312 37.15625 -38.6875 C 36.445312 -39.050781 35.789062 -39.507812 35.1875 -40.0625 C 34.582031 -40.613281 33.976562 -41.210938 33.375 -41.859375 C 32.769531 -42.515625 32.0625 -43.117188 31.25 -43.671875 C 30.4375 -44.222656 29.476562 -44.679688 28.375 -45.046875 C 27.28125 -45.421875 25.945312 -45.609375 24.375 -45.609375 C 21.800781 -45.609375 19.910156 -45.09375 18.703125 -44.0625 C 17.503906 -43.039062 16.90625 -41.847656 16.90625 -40.484375 C 16.90625 -38.921875 17.640625 -37.675781 19.109375 -36.75 C 20.578125 -35.832031 22.421875 -35.007812 24.640625 -34.28125 C 26.867188 -33.550781 29.269531 -32.804688 31.84375 -32.046875 C 34.414062 -31.285156 36.8125 -30.273438 39.03125 -29.015625 C 41.257812 -27.753906 43.109375 -26.140625 44.578125 -24.171875 C 46.046875 -22.210938 46.78125 -19.660156 46.78125 -16.515625 C 46.78125 -14.046875 46.269531 -11.722656 45.25 -9.546875 C 44.226562 -7.378906 42.734375 -5.46875 40.765625 -3.8125 C 38.796875 -2.164062 36.367188 -0.859375 33.484375 0.109375 C 30.609375 1.085938 27.3125 1.578125 23.59375 1.578125 Z M 23.59375 1.578125 "/></g></g><g style="fill:#0a99a2;fill-opacity:1;"><g transform="translate(102.496431, 384.92621)"><path style="stroke:none" d="M 11.796875 0.78125 C 10.015625 0.78125 8.519531 0.191406 7.3125 -0.984375 C 6.101562 -2.160156 5.5 -3.535156 5.5 -5.109375 L 5.5 -49.140625 C 5.5 -50.710938 6.101562 -52.085938 7.3125 -53.265625 C 8.519531 -54.441406 10.015625 -55.03125 11.796875 -55.03125 L 27.125 -55.03125 C 30.738281 -55.03125 33.945312 -54.554688 36.75 -53.609375 C 39.5625 -52.671875 41.910156 -51.375 43.796875 -49.71875 C 45.679688 -48.070312 47.109375 -46.082031 48.078125 -43.75 C 49.046875 -41.414062 49.53125 -38.890625 49.53125 -36.171875 C 49.53125 -33.390625 49.046875 -30.84375 48.078125 -28.53125 C 47.109375 -26.226562 45.679688 -24.25 43.796875 -22.59375 C 41.910156 -20.945312 39.5625 -19.648438 36.75 -18.703125 C 33.945312 -17.765625 30.738281 -17.296875 27.125 -17.296875 L 18.078125 -17.296875 L 18.078125 -5.109375 C 18.078125 -3.535156 17.472656 -2.160156 16.265625 -0.984375 C 15.066406 0.191406 13.578125 0.78125 11.796875 0.78125 Z M 27.125 -28.3125 C 30.269531 -28.3125 32.628906 -29.03125 34.203125 -30.46875 C 35.773438 -31.90625 36.5625 -33.804688 36.5625 -36.171875 C 36.5625 -38.523438 35.773438 -40.421875 34.203125 -41.859375 C 32.628906 -43.304688 30.269531 -44.03125 27.125 -44.03125 L 18.078125 -44.03125 L 18.078125 -28.3125 Z M 27.125 -28.3125 "/></g></g><g style="fill:#0a99a2;fill-opacity:1;"><g transform="translate(156.429713, 384.92621)"><path style="stroke:none" d="M 11.796875 0.78125 C 10.015625 0.78125 8.519531 0.191406 7.3125 -0.984375 C 6.101562 -2.160156 5.5 -3.535156 5.5 -5.109375 L 5.5 -49.140625 C 5.5 -50.710938 6.101562 -52.085938 7.3125 -53.265625 C 8.519531 -54.441406 10.015625 -55.03125 11.796875 -55.03125 L 28.703125 -55.03125 C 32.054688 -55.03125 35.015625 -54.582031 37.578125 -53.6875 C 40.148438 -52.800781 42.328125 -51.582031 44.109375 -50.03125 C 45.890625 -48.488281 47.238281 -46.671875 48.15625 -44.578125 C 49.070312 -42.484375 49.53125 -40.203125 49.53125 -37.734375 C 49.53125 -35.171875 49.046875 -33.035156 48.078125 -31.328125 C 47.109375 -29.628906 46.019531 -28.253906 44.8125 -27.203125 C 43.445312 -25.992188 41.875 -25.050781 40.09375 -24.375 L 40.09375 -23.59375 L 49.921875 -10.609375 C 50.347656 -10.035156 50.742188 -9.460938 51.109375 -8.890625 C 51.367188 -8.359375 51.628906 -7.765625 51.890625 -7.109375 C 52.148438 -6.453125 52.28125 -5.785156 52.28125 -5.109375 C 52.28125 -3.535156 51.675781 -2.160156 50.46875 -0.984375 C 49.269531 0.191406 47.78125 0.78125 46 0.78125 C 44.632812 0.78125 43.519531 0.457031 42.65625 -0.1875 C 41.789062 -0.84375 41.066406 -1.566406 40.484375 -2.359375 L 27.515625 -20.4375 L 18.078125 -20.4375 L 18.078125 -5.109375 C 18.078125 -3.535156 17.472656 -2.160156 16.265625 -0.984375 C 15.066406 0.191406 13.578125 0.78125 11.796875 0.78125 Z M 28.703125 -31.453125 C 31.265625 -31.453125 33.210938 -32.050781 34.546875 -33.25 C 35.890625 -34.457031 36.5625 -35.953125 36.5625 -37.734375 C 36.5625 -39.515625 35.890625 -41.007812 34.546875 -42.21875 C 33.210938 -43.425781 31.265625 -44.03125 28.703125 -44.03125 L 18.078125 -44.03125 L 18.078125 -31.453125 Z M 28.703125 -31.453125 "/></g></g><g style="fill:#0a99a2;fill-opacity:1;"><g transform="translate(211.542298, 384.92621)"><path style="stroke:none" d="M 12.1875 0.78125 C 10.40625 0.78125 8.910156 0.191406 7.703125 -0.984375 C 6.492188 -2.160156 5.890625 -3.535156 5.890625 -5.109375 L 5.890625 -49.921875 C 5.890625 -51.492188 6.492188 -52.867188 7.703125 -54.046875 C 8.910156 -55.234375 10.40625 -55.828125 12.1875 -55.828125 C 13.96875 -55.828125 15.460938 -55.234375 16.671875 -54.046875 C 17.878906 -52.867188 18.484375 -51.492188 18.484375 -49.921875 L 18.484375 -5.109375 C 18.484375 -3.535156 17.878906 -2.160156 16.671875 -0.984375 C 15.460938 0.191406 13.96875 0.78125 12.1875 0.78125 Z M 12.1875 0.78125 "/></g></g><g style="fill:#0a99a2;fill-opacity:1;"><g transform="translate(236.779346, 384.92621)"><path style="stroke:none" d="M 11.796875 0.78125 C 10.015625 0.78125 8.519531 0.191406 7.3125 -0.984375 C 6.101562 -2.160156 5.5 -3.535156 5.5 -5.109375 L 5.5 -49.921875 C 5.5 -51.492188 6.113281 -52.867188 7.34375 -54.046875 C 8.582031 -55.234375 10.195312 -55.828125 12.1875 -55.828125 C 13.96875 -55.828125 15.460938 -55.300781 16.671875 -54.25 C 17.878906 -53.195312 19.003906 -51.882812 20.046875 -50.3125 L 38.53125 -22.40625 L 39.3125 -22.40625 L 39.3125 -49.921875 C 39.3125 -51.492188 39.910156 -52.867188 41.109375 -54.046875 C 42.316406 -55.234375 43.816406 -55.828125 45.609375 -55.828125 C 47.390625 -55.828125 48.878906 -55.234375 50.078125 -54.046875 C 51.285156 -52.867188 51.890625 -51.492188 51.890625 -49.921875 L 51.890625 -5.109375 C 51.890625 -3.484375 51.273438 -2.09375 50.046875 -0.9375 C 48.816406 0.207031 47.203125 0.78125 45.203125 0.78125 C 43.421875 0.78125 41.925781 0.257812 40.71875 -0.78125 C 39.519531 -1.832031 38.394531 -3.144531 37.34375 -4.71875 L 18.875 -32.625 L 18.078125 -32.625 L 18.078125 -5.109375 C 18.078125 -3.535156 17.472656 -2.160156 16.265625 -0.984375 C 15.066406 0.191406 13.578125 0.78125 11.796875 0.78125 Z M 11.796875 0.78125 "/></g></g><g style="fill:#0a99a2;fill-opacity:1;"><g transform="translate(295.03673, 384.92621)"><path style="stroke:none" d="M 28.703125 1.578125 C 25.140625 1.578125 21.890625 1 18.953125 -0.15625 C 16.015625 -1.3125 13.492188 -2.910156 11.390625 -4.953125 C 9.296875 -6.992188 7.660156 -9.40625 6.484375 -12.1875 C 5.304688 -14.96875 4.71875 -17.984375 4.71875 -21.234375 L 4.71875 -33.8125 C 4.71875 -37.0625 5.304688 -40.070312 6.484375 -42.84375 C 7.660156 -45.625 9.296875 -48.035156 11.390625 -50.078125 C 13.492188 -52.128906 16.015625 -53.726562 18.953125 -54.875 C 21.890625 -56.03125 25.140625 -56.609375 28.703125 -56.609375 C 31.847656 -56.609375 34.675781 -56.175781 37.1875 -55.3125 C 39.707031 -54.445312 41.859375 -53.359375 43.640625 -52.046875 C 45.421875 -50.734375 46.78125 -49.316406 47.71875 -47.796875 C 48.664062 -46.285156 49.140625 -44.898438 49.140625 -43.640625 C 49.140625 -42.066406 48.601562 -40.753906 47.53125 -39.703125 C 46.457031 -38.660156 45.03125 -38.140625 43.25 -38.140625 C 41.78125 -38.140625 40.597656 -38.53125 39.703125 -39.3125 C 38.816406 -40.09375 37.910156 -40.941406 36.984375 -41.859375 C 36.066406 -42.785156 34.992188 -43.640625 33.765625 -44.421875 C 32.535156 -45.210938 30.847656 -45.609375 28.703125 -45.609375 C 25.347656 -45.609375 22.671875 -44.582031 20.671875 -42.53125 C 18.679688 -40.488281 17.6875 -37.582031 17.6875 -33.8125 L 17.6875 -21.234375 C 17.6875 -17.453125 18.679688 -14.539062 20.671875 -12.5 C 22.671875 -10.457031 25.347656 -9.4375 28.703125 -9.4375 C 30.378906 -9.4375 31.78125 -9.59375 32.90625 -9.90625 C 34.03125 -10.21875 34.960938 -10.582031 35.703125 -11 C 36.535156 -11.476562 37.210938 -12.003906 37.734375 -12.578125 L 37.734375 -20.828125 L 33.015625 -20.828125 C 31.023438 -20.828125 29.476562 -21.351562 28.375 -22.40625 C 27.28125 -23.457031 26.734375 -24.769531 26.734375 -26.34375 C 26.734375 -27.914062 27.28125 -29.222656 28.375 -30.265625 C 29.476562 -31.316406 31.023438 -31.84375 33.015625 -31.84375 L 44.03125 -31.84375 C 45.8125 -31.84375 47.300781 -31.253906 48.5 -30.078125 C 49.707031 -28.898438 50.3125 -27.523438 50.3125 -25.953125 L 50.3125 -11 C 50.3125 -9.90625 49.8125 -8.632812 48.8125 -7.1875 C 47.820312 -5.75 46.394531 -4.382812 44.53125 -3.09375 C 42.675781 -1.8125 40.410156 -0.710938 37.734375 0.203125 C 35.066406 1.117188 32.054688 1.578125 28.703125 1.578125 Z M 28.703125 1.578125 "/></g></g><g style="fill:#0a99a2;fill-opacity:1;"><g transform="translate(350.935509, 384.92621)"><path style="stroke:none" d=""/></g></g><g style="fill:#0a99a2;fill-opacity:1;"><g transform="translate(372.634671, 384.92621)"><path style="stroke:none" d="M 11.796875 0 C 10.015625 0 8.519531 -0.585938 7.3125 -1.765625 C 6.101562 -2.941406 5.5 -4.316406 5.5 -5.890625 L 5.5 -49.921875 C 5.5 -51.492188 6.101562 -52.867188 7.3125 -54.046875 C 8.519531 -55.234375 10.015625 -55.828125 11.796875 -55.828125 C 13.578125 -55.828125 15.066406 -55.234375 16.265625 -54.046875 C 17.472656 -52.867188 18.078125 -51.492188 18.078125 -49.921875 L 18.078125 -11 L 38.140625 -11 C 40.128906 -11 41.671875 -10.472656 42.765625 -9.421875 C 43.867188 -8.378906 44.421875 -7.070312 44.421875 -5.5 C 44.421875 -3.925781 43.867188 -2.613281 42.765625 -1.5625 C 41.671875 -0.519531 40.128906 0 38.140625 0 Z M 11.796875 0 "/></g></g><g style="fill:#0a99a2;fill-opacity:1;"><g transform="translate(417.91978, 384.92621)"><path style="stroke:none" d="M 7.46875 0.78125 C 5.6875 0.78125 4.191406 0.191406 2.984375 -0.984375 C 1.773438 -2.160156 1.171875 -3.535156 1.171875 -5.109375 C 1.171875 -5.578125 1.25 -6.148438 1.40625 -6.828125 C 1.570312 -7.515625 1.757812 -8.175781 1.96875 -8.8125 C 2.175781 -9.539062 2.4375 -10.269531 2.75 -11 L 17.6875 -49.53125 C 18.53125 -51.738281 19.671875 -53.46875 21.109375 -54.71875 C 22.546875 -55.976562 24.550781 -56.609375 27.125 -56.609375 C 29.695312 -56.609375 31.703125 -55.976562 33.140625 -54.71875 C 34.578125 -53.46875 35.71875 -51.738281 36.5625 -49.53125 L 51.5 -11 C 51.8125 -10.269531 52.070312 -9.539062 52.28125 -8.8125 C 52.488281 -8.175781 52.671875 -7.515625 52.828125 -6.828125 C 52.992188 -6.148438 53.078125 -5.578125 53.078125 -5.109375 C 53.078125 -3.535156 52.472656 -2.160156 51.265625 -0.984375 C 50.054688 0.191406 48.5625 0.78125 46.78125 0.78125 C 45 0.78125 43.597656 0.296875 42.578125 -0.671875 C 41.554688 -1.640625 40.726562 -2.988281 40.09375 -4.71875 L 37.34375 -12.1875 L 16.90625 -12.1875 L 14.15625 -4.71875 C 13.519531 -2.988281 12.691406 -1.640625 11.671875 -0.671875 C 10.648438 0.296875 9.25 0.78125 7.46875 0.78125 Z M 33.8125 -23.1875 L 27.515625 -41.671875 L 26.734375 -41.671875 L 20.4375 -23.1875 Z M 33.8125 -23.1875 "/></g></g><g style="fill:#0a99a2;fill-opacity:1;"><g transform="translate(473.032364, 384.92621)"><path style="stroke:none" d="M 11.796875 0.78125 C 10.015625 0.78125 8.519531 0.191406 7.3125 -0.984375 C 6.101562 -2.160156 5.5 -3.535156 5.5 -5.109375 L 5.5 -49.921875 C 5.5 -51.492188 6.113281 -52.867188 7.34375 -54.046875 C 8.582031 -55.234375 10.195312 -55.828125 12.1875 -55.828125 C 13.96875 -55.828125 15.460938 -55.300781 16.671875 -54.25 C 17.878906 -53.195312 19.003906 -51.882812 20.046875 -50.3125 L 38.53125 -22.40625 L 39.3125 -22.40625 L 39.3125 -49.921875 C 39.3125 -51.492188 39.910156 -52.867188 41.109375 -54.046875 C 42.316406 -55.234375 43.816406 -55.828125 45.609375 -55.828125 C 47.390625 -55.828125 48.878906 -55.234375 50.078125 -54.046875 C 51.285156 -52.867188 51.890625 -51.492188 51.890625 -49.921875 L 51.890625 -5.109375 C 51.890625 -3.484375 51.273438 -2.09375 50.046875 -0.9375 C 48.816406 0.207031 47.203125 0.78125 45.203125 0.78125 C 43.421875 0.78125 41.925781 0.257812 40.71875 -0.78125 C 39.519531 -1.832031 38.394531 -3.144531 37.34375 -4.71875 L 18.875 -32.625 L 18.078125 -32.625 L 18.078125 -5.109375 C 18.078125 -3.535156 17.472656 -2.160156 16.265625 -0.984375 C 15.066406 0.191406 13.578125 0.78125 11.796875 0.78125 Z M 11.796875 0.78125 "/></g></g><g style="fill:#0a99a2;fill-opacity:1;"><g transform="translate(531.289727, 384.92621)"><path style="stroke:none" d="M 11.796875 0 C 10.015625 0 8.519531 -0.585938 7.3125 -1.765625 C 6.101562 -2.941406 5.5 -4.316406 5.5 -5.890625 L 5.5 -49.140625 C 5.5 -50.710938 6.101562 -52.085938 7.3125 -53.265625 C 8.519531 -54.441406 10.015625 -55.03125 11.796875 -55.03125 L 42.0625 -55.03125 C 44.050781 -55.03125 45.597656 -54.503906 46.703125 -53.453125 C 47.804688 -52.410156 48.359375 -51.101562 48.359375 -49.53125 C 48.359375 -47.957031 47.804688 -46.644531 46.703125 -45.59375 C 45.597656 -44.550781 44.050781 -44.03125 42.0625 -44.03125 L 18.078125 -44.03125 L 18.078125 -33.015625 L 34.984375 -33.015625 C 36.972656 -33.015625 38.519531 -32.488281 39.625 -31.4375 C 40.726562 -30.394531 41.28125 -29.085938 41.28125 -27.515625 C 41.28125 -25.941406 40.726562 -24.628906 39.625 -23.578125 C 38.519531 -22.535156 36.972656 -22.015625 34.984375 -22.015625 L 18.078125 -22.015625 L 18.078125 -11 L 42.84375 -11 C 44.84375 -11 46.390625 -10.472656 47.484375 -9.421875 C 48.585938 -8.378906 49.140625 -7.070312 49.140625 -5.5 C 49.140625 -3.925781 48.585938 -2.613281 47.484375 -1.5625 C 46.390625 -0.519531 44.84375 0 42.84375 0 Z M 11.796875 0 "/></g></g><g style="fill:#fc4c17;fill-opacity:1;"><g transform="translate(106.112194, 462.796969)"><path style="stroke:none" d="M 11.703125 0.78125 C 9.929688 0.78125 8.445312 0.195312 7.25 -0.96875 C 6.050781 -2.144531 5.453125 -3.507812 5.453125 -5.0625 L 5.453125 -49.515625 C 5.453125 -51.066406 6.0625 -52.425781 7.28125 -53.59375 C 8.507812 -54.769531 10.109375 -55.359375 12.078125 -55.359375 C 13.847656 -55.359375 15.332031 -54.835938 16.53125 -53.796875 C 17.726562 -52.753906 18.84375 -51.457031 19.875 -49.90625 L 38.203125 -22.21875 L 38.984375 -22.21875 L 38.984375 -49.515625 C 38.984375 -51.066406 39.582031 -52.425781 40.78125 -53.59375 C 41.976562 -54.769531 43.457031 -55.359375 45.21875 -55.359375 C 46.988281 -55.359375 48.46875 -54.769531 49.65625 -53.59375 C 50.851562 -52.425781 51.453125 -51.066406 51.453125 -49.515625 L 51.453125 -5.0625 C 51.453125 -3.457031 50.84375 -2.082031 49.625 -0.9375 C 48.40625 0.207031 46.804688 0.78125 44.828125 0.78125 C 43.066406 0.78125 41.585938 0.257812 40.390625 -0.78125 C 39.191406 -1.820312 38.070312 -3.117188 37.03125 -4.671875 L 18.71875 -32.359375 L 17.9375 -32.359375 L 17.9375 -5.0625 C 17.9375 -3.507812 17.335938 -2.144531 16.140625 -0.96875 C 14.941406 0.195312 13.460938 0.78125 11.703125 0.78125 Z M 11.703125 0.78125 "/></g></g><g style="fill:#f6353b;fill-opacity:1;"><g transform="translate(171.058994, 462.796969)"><path style="stroke:none" d="M 28.0625 1.5625 C 24.632812 1.5625 21.53125 1.03125 18.75 -0.03125 C 15.96875 -1.101562 13.585938 -2.597656 11.609375 -4.515625 C 9.640625 -6.441406 8.117188 -8.742188 7.046875 -11.421875 C 5.984375 -14.097656 5.453125 -17.046875 5.453125 -20.265625 L 5.453125 -49.515625 C 5.453125 -51.066406 6.050781 -52.425781 7.25 -53.59375 C 8.445312 -54.769531 9.929688 -55.359375 11.703125 -55.359375 C 13.460938 -55.359375 14.941406 -54.769531 16.140625 -53.59375 C 17.335938 -52.425781 17.9375 -51.066406 17.9375 -49.515625 L 17.9375 -20.265625 C 17.9375 -16.734375 18.84375 -14.03125 20.65625 -12.15625 C 22.476562 -10.289062 24.945312 -9.359375 28.0625 -9.359375 C 31.1875 -9.359375 33.65625 -10.289062 35.46875 -12.15625 C 37.289062 -14.03125 38.203125 -16.734375 38.203125 -20.265625 L 38.203125 -49.515625 C 38.203125 -51.066406 38.800781 -52.425781 40 -53.59375 C 41.195312 -54.769531 42.675781 -55.359375 44.4375 -55.359375 C 46.207031 -55.359375 47.691406 -54.769531 48.890625 -53.59375 C 50.085938 -52.425781 50.6875 -51.066406 50.6875 -49.515625 L 50.6875 -20.265625 C 50.6875 -17.046875 50.148438 -14.097656 49.078125 -11.421875 C 48.015625 -8.742188 46.492188 -6.441406 44.515625 -4.515625 C 42.546875 -2.597656 40.171875 -1.101562 37.390625 -0.03125 C 34.609375 1.03125 31.5 1.5625 28.0625 1.5625 Z M 28.0625 1.5625 "/></g></g><g style="fill:#f9a816;fill-opacity:1;"><g transform="translate(235.228116, 462.796969)"><path style="stroke:none" d="M 11.703125 0.78125 C 9.929688 0.78125 8.445312 0.195312 7.25 -0.96875 C 6.050781 -2.144531 5.453125 -3.507812 5.453125 -5.0625 L 5.453125 -48.734375 C 5.453125 -50.285156 6.050781 -51.644531 7.25 -52.8125 C 8.445312 -53.988281 9.929688 -54.578125 11.703125 -54.578125 L 28.453125 -54.578125 C 31.785156 -54.578125 34.722656 -54.132812 37.265625 -53.25 C 39.816406 -52.363281 41.972656 -51.15625 43.734375 -49.625 C 45.503906 -48.09375 46.84375 -46.285156 47.75 -44.203125 C 48.664062 -42.128906 49.125 -39.867188 49.125 -37.421875 C 49.125 -34.878906 48.640625 -32.757812 47.671875 -31.0625 C 46.710938 -29.375 45.632812 -28.015625 44.4375 -26.984375 C 43.09375 -25.785156 41.535156 -24.847656 39.765625 -24.171875 L 39.765625 -23.390625 L 49.515625 -10.53125 C 49.929688 -9.957031 50.320312 -9.382812 50.6875 -8.8125 C 50.9375 -8.289062 51.191406 -7.703125 51.453125 -7.046875 C 51.710938 -6.398438 51.84375 -5.738281 51.84375 -5.0625 C 51.84375 -3.507812 51.242188 -2.144531 50.046875 -0.96875 C 48.859375 0.195312 47.378906 0.78125 45.609375 0.78125 C 44.253906 0.78125 43.148438 0.457031 42.296875 -0.1875 C 41.441406 -0.84375 40.726562 -1.5625 40.15625 -2.34375 L 27.296875 -20.265625 L 17.9375 -20.265625 L 17.9375 -5.0625 C 17.9375 -3.507812 17.335938 -2.144531 16.140625 -0.96875 C 14.941406 0.195312 13.460938 0.78125 11.703125 0.78125 Z M 28.453125 -31.1875 C 31.003906 -31.1875 32.941406 -31.785156 34.265625 -32.984375 C 35.585938 -34.179688 36.25 -35.660156 36.25 -37.421875 C 36.25 -39.191406 35.585938 -40.671875 34.265625 -41.859375 C 32.941406 -43.054688 31.003906 -43.65625 28.453125 -43.65625 L 17.9375 -43.65625 L 17.9375 -31.1875 Z M 28.453125 -31.1875 "/></g></g><g style="fill:#05987c;fill-opacity:1;"><g transform="translate(297.053683, 462.796969)"><path style="stroke:none" d="M 23.390625 1.5625 C 20.171875 1.5625 17.257812 1.101562 14.65625 0.1875 C 12.0625 -0.71875 9.851562 -1.832031 8.03125 -3.15625 C 6.207031 -4.476562 4.800781 -5.921875 3.8125 -7.484375 C 2.832031 -9.046875 2.34375 -10.453125 2.34375 -11.703125 C 2.34375 -13.253906 2.875 -14.550781 3.9375 -15.59375 C 5 -16.632812 6.414062 -17.15625 8.1875 -17.15625 C 9.644531 -17.15625 10.828125 -16.75 11.734375 -15.9375 C 12.640625 -15.132812 13.585938 -14.238281 14.578125 -13.25 C 15.566406 -12.257812 16.773438 -11.363281 18.203125 -10.5625 C 19.628906 -9.757812 21.617188 -9.359375 24.171875 -9.359375 C 27.285156 -9.359375 29.625 -10.003906 31.1875 -11.296875 C 32.75 -12.597656 33.53125 -14.03125 33.53125 -15.59375 C 33.53125 -17.15625 32.800781 -18.390625 31.34375 -19.296875 C 29.882812 -20.203125 28.050781 -21.019531 25.84375 -21.75 C 23.632812 -22.476562 21.253906 -23.21875 18.703125 -23.96875 C 16.160156 -24.726562 13.785156 -25.726562 11.578125 -26.96875 C 9.367188 -28.21875 7.535156 -29.816406 6.078125 -31.765625 C 4.628906 -33.722656 3.90625 -36.257812 3.90625 -39.375 C 3.90625 -41.71875 4.359375 -43.898438 5.265625 -45.921875 C 6.171875 -47.953125 7.519531 -49.734375 9.3125 -51.265625 C 11.101562 -52.796875 13.296875 -53.988281 15.890625 -54.84375 C 18.492188 -55.707031 21.515625 -56.140625 24.953125 -56.140625 C 28.066406 -56.140625 30.867188 -55.707031 33.359375 -54.84375 C 35.859375 -53.988281 37.992188 -52.910156 39.765625 -51.609375 C 41.535156 -50.316406 42.882812 -48.914062 43.8125 -47.40625 C 44.75 -45.894531 45.21875 -44.515625 45.21875 -43.265625 C 45.21875 -41.710938 44.6875 -40.414062 43.625 -39.375 C 42.5625 -38.332031 41.144531 -37.8125 39.375 -37.8125 C 38.382812 -37.8125 37.535156 -37.992188 36.828125 -38.359375 C 36.128906 -38.722656 35.484375 -39.175781 34.890625 -39.71875 C 34.296875 -40.269531 33.695312 -40.867188 33.09375 -41.515625 C 32.5 -42.171875 31.796875 -42.769531 30.984375 -43.3125 C 30.179688 -43.851562 29.234375 -44.304688 28.140625 -44.671875 C 27.054688 -45.035156 25.734375 -45.21875 24.171875 -45.21875 C 21.617188 -45.21875 19.742188 -44.710938 18.546875 -43.703125 C 17.359375 -42.691406 16.765625 -41.507812 16.765625 -40.15625 C 16.765625 -38.59375 17.488281 -37.359375 18.9375 -36.453125 C 20.394531 -35.546875 22.226562 -34.726562 24.4375 -34 C 26.644531 -33.269531 29.019531 -32.523438 31.5625 -31.765625 C 34.113281 -31.015625 36.492188 -30.015625 38.703125 -28.765625 C 40.921875 -27.523438 42.753906 -25.925781 44.203125 -23.96875 C 45.660156 -22.019531 46.390625 -19.488281 46.390625 -16.375 C 46.390625 -13.925781 45.878906 -11.625 44.859375 -9.46875 C 43.847656 -7.3125 42.367188 -5.414062 40.421875 -3.78125 C 38.472656 -2.144531 36.066406 -0.847656 33.203125 0.109375 C 30.347656 1.078125 27.078125 1.5625 23.390625 1.5625 Z M 23.390625 1.5625 "/></g></g><g style="fill:#28a738;fill-opacity:1;"><g transform="translate(354.591506, 462.796969)"><path style="stroke:none" d="M 11.703125 0 C 9.929688 0 8.445312 -0.582031 7.25 -1.75 C 6.050781 -2.925781 5.453125 -4.289062 5.453125 -5.84375 L 5.453125 -48.734375 C 5.453125 -50.285156 6.050781 -51.644531 7.25 -52.8125 C 8.445312 -53.988281 9.929688 -54.578125 11.703125 -54.578125 L 41.71875 -54.578125 C 43.6875 -54.578125 45.21875 -54.054688 46.3125 -53.015625 C 47.40625 -51.972656 47.953125 -50.675781 47.953125 -49.125 C 47.953125 -47.5625 47.40625 -46.257812 46.3125 -45.21875 C 45.21875 -44.175781 43.6875 -43.65625 41.71875 -43.65625 L 17.9375 -43.65625 L 17.9375 -32.75 L 34.703125 -32.75 C 36.671875 -32.75 38.203125 -32.226562 39.296875 -31.1875 C 40.390625 -30.144531 40.9375 -28.847656 40.9375 -27.296875 C 40.9375 -25.734375 40.390625 -24.429688 39.296875 -23.390625 C 38.203125 -22.347656 36.671875 -21.828125 34.703125 -21.828125 L 17.9375 -21.828125 L 17.9375 -10.921875 L 42.5 -10.921875 C 44.46875 -10.921875 46 -10.398438 47.09375 -9.359375 C 48.1875 -8.316406 48.734375 -7.015625 48.734375 -5.453125 C 48.734375 -3.898438 48.1875 -2.601562 47.09375 -1.5625 C 46 -0.519531 44.46875 0 42.5 0 Z M 11.703125 0 "/></g></g><g style="fill:#097baa;fill-opacity:1;"><g transform="translate(412.907002, 462.796969)"><path style="stroke:none" d="M 11.703125 0.78125 C 9.929688 0.78125 8.445312 0.195312 7.25 -0.96875 C 6.050781 -2.144531 5.453125 -3.507812 5.453125 -5.0625 L 5.453125 -48.734375 C 5.453125 -50.285156 6.050781 -51.644531 7.25 -52.8125 C 8.445312 -53.988281 9.929688 -54.578125 11.703125 -54.578125 L 28.453125 -54.578125 C 31.785156 -54.578125 34.722656 -54.132812 37.265625 -53.25 C 39.816406 -52.363281 41.972656 -51.15625 43.734375 -49.625 C 45.503906 -48.09375 46.84375 -46.285156 47.75 -44.203125 C 48.664062 -42.128906 49.125 -39.867188 49.125 -37.421875 C 49.125 -34.878906 48.640625 -32.757812 47.671875 -31.0625 C 46.710938 -29.375 45.632812 -28.015625 44.4375 -26.984375 C 43.09375 -25.785156 41.535156 -24.847656 39.765625 -24.171875 L 39.765625 -23.390625 L 49.515625 -10.53125 C 49.929688 -9.957031 50.320312 -9.382812 50.6875 -8.8125 C 50.9375 -8.289062 51.191406 -7.703125 51.453125 -7.046875 C 51.710938 -6.398438 51.84375 -5.738281 51.84375 -5.0625 C 51.84375 -3.507812 51.242188 -2.144531 50.046875 -0.96875 C 48.859375 0.195312 47.378906 0.78125 45.609375 0.78125 C 44.253906 0.78125 43.148438 0.457031 42.296875 -0.1875 C 41.441406 -0.84375 40.726562 -1.5625 40.15625 -2.34375 L 27.296875 -20.265625 L 17.9375 -20.265625 L 17.9375 -5.0625 C 17.9375 -3.507812 17.335938 -2.144531 16.140625 -0.96875 C 14.941406 0.195312 13.460938 0.78125 11.703125 0.78125 Z M 28.453125 -31.1875 C 31.003906 -31.1875 32.941406 -31.785156 34.265625 -32.984375 C 35.585938 -34.179688 36.25 -35.660156 36.25 -37.421875 C 36.25 -39.191406 35.585938 -40.671875 34.265625 -41.859375 C 32.941406 -43.054688 31.003906 -43.65625 28.453125 -43.65625 L 17.9375 -43.65625 L 17.9375 -31.1875 Z M 28.453125 -31.1875 "/></g></g><g style="fill:#94579c;fill-opacity:1;"><g transform="translate(474.732575, 462.796969)"><path style="stroke:none" d="M 25.34375 0.78125 C 23.570312 0.78125 22.085938 0.195312 20.890625 -0.96875 C 19.703125 -2.144531 19.109375 -3.507812 19.109375 -5.0625 L 19.109375 -20.265625 L 3.125 -44.046875 C 2.707031 -44.617188 2.210938 -45.332031 1.640625 -46.1875 C 1.066406 -47.050781 0.78125 -48.160156 0.78125 -49.515625 C 0.78125 -51.066406 1.375 -52.425781 2.5625 -53.59375 C 3.757812 -54.769531 5.242188 -55.359375 7.015625 -55.359375 C 8.367188 -55.359375 9.488281 -55.03125 10.375 -54.375 C 11.257812 -53.726562 11.957031 -53.015625 12.46875 -52.234375 L 24.953125 -33.140625 L 25.734375 -33.140625 L 38.203125 -52.234375 C 38.722656 -53.015625 39.425781 -53.726562 40.3125 -54.375 C 41.195312 -55.03125 42.3125 -55.359375 43.65625 -55.359375 C 45.425781 -55.359375 46.910156 -54.769531 48.109375 -53.59375 C 49.304688 -52.425781 49.90625 -51.066406 49.90625 -49.515625 C 49.90625 -48.160156 49.617188 -47.050781 49.046875 -46.1875 C 48.472656 -45.332031 47.976562 -44.617188 47.5625 -44.046875 L 31.578125 -20.265625 L 31.578125 -5.0625 C 31.578125 -3.507812 30.976562 -2.144531 29.78125 -0.96875 C 28.582031 0.195312 27.101562 0.78125 25.34375 0.78125 Z M 25.34375 0.78125 "/></g></g></g></svg>